<svg width="24" height="25" viewBox="0 0 24 25" fill="none" xmlns="http://www.w3.org/2000/svg">
    <path d="M8.00989 12.5819L10.6599 15.2429L15.9709 9.9209" stroke="white" stroke-width="2"
        stroke-linecap="round" stroke-linejoin="round" />
    <path
        d="M10.6159 2.08129C11.3746 1.43254 12.6171 1.43254 13.3869 2.08129L15.1242 3.57673C15.4541 3.86263 16.0698 4.09354 16.5097 4.09354H18.379C19.5445 4.09354 20.5012 5.05018 20.5012 6.21574V8.08504C20.5012 8.51388 20.7321 9.14065 21.018 9.47052L22.5134 11.2078C23.1622 11.9665 23.1622 13.2091 22.5134 13.9788L21.018 15.7161C20.7321 16.046 20.5012 16.6618 20.5012 17.1016V18.9709C20.5012 20.1365 19.5445 21.0931 18.379 21.0931H16.5097C16.0808 21.0931 15.4541 21.324 15.1242 21.6099L13.3869 23.1054C12.6281 23.7541 11.3856 23.7541 10.6159 23.1054L8.87855 21.6099C8.54867 21.324 7.9329 21.0931 7.49306 21.0931H5.59078C4.42522 21.0931 3.46857 20.1365 3.46857 18.9709V17.0906C3.46857 16.6618 3.23766 16.046 2.96276 15.7161L1.47832 13.9678C0.84056 13.2091 0.84056 11.9775 1.47832 11.2188L2.96276 9.47052C3.23766 9.14065 3.46857 8.52488 3.46857 8.09604V6.20475C3.46857 5.03919 4.42522 4.08254 5.59078 4.08254H7.49306C7.9219 4.08254 8.54867 3.85163 8.87855 3.56574L10.6159 2.08129Z"
        stroke="white" stroke-width="2" stroke-linecap="round" stroke-linejoin="round" />
</svg>