<svg width="23" height="22" viewBox="0 0 23 22" fill="none" xmlns="http://www.w3.org/2000/svg">
<path d="M17.1308 22C15.9476 22 14.7016 21.7303 13.4137 21.2108C12.1572 20.7013 10.8902 20.002 9.65461 19.1528C8.42951 18.2937 7.2463 17.3347 6.12591 16.2857C5.016 15.2168 4.01079 14.0879 3.12076 12.9291C2.22027 11.7303 1.49777 10.5315 0.984699 9.37263C0.440212 8.13387 0.167969 6.93507 0.167969 5.8062C0.167969 5.02698 0.314561 4.28772 0.597276 3.59841C0.890461 2.88912 1.36165 2.22978 2.00038 1.66035C2.80664 0.901105 3.72808 0.521484 4.71234 0.521484C5.12071 0.521484 5.53954 0.611394 5.89555 0.771235C6.30392 0.951055 6.64946 1.22078 6.90076 1.58043L9.33001 4.84716C9.5499 5.13687 9.71743 5.41659 9.83261 5.69631C9.96873 5.99601 10.042 6.29571 10.042 6.58542C10.042 6.96504 9.92685 7.33467 9.70696 7.68432C9.5499 7.95405 9.30907 8.24376 9.00541 8.53347L8.29339 9.24276C8.30386 9.27273 8.31433 9.29271 8.3248 9.31269C8.45045 9.52248 8.70175 9.88212 9.18342 10.4216C9.69649 10.981 10.1782 11.4905 10.6598 11.96C11.2776 12.5395 11.7907 12.999 12.2723 13.3786C12.8692 13.8581 13.2566 14.0979 13.487 14.2078L13.466 14.2577L14.2304 13.5385C14.555 13.2288 14.8691 12.999 15.1728 12.8492C15.7487 12.5095 16.4816 12.4496 17.2146 12.7393C17.4868 12.8492 17.78 12.999 18.0942 13.2088L21.5705 15.5664C21.9579 15.8162 22.2406 16.1359 22.4082 16.5155C22.5652 16.8951 22.6385 17.2448 22.6385 17.5944C22.6385 18.0739 22.5233 18.5534 22.3035 19.003C22.0836 19.4525 21.8113 19.8422 21.4658 20.2018C20.8689 20.8312 20.2197 21.2807 19.4658 21.5704C18.7434 21.8501 17.958 22 17.1308 22ZM4.71234 2.01999C4.13644 2.01999 3.60242 2.25975 3.08935 2.73927C2.60769 3.16884 2.27262 3.63837 2.0632 4.14786C1.84331 4.66734 1.7386 5.21679 1.7386 5.8062C1.7386 6.73527 1.96896 7.74426 2.42968 8.78322C2.90087 9.84216 3.56054 10.9411 4.39821 12.04C5.23589 13.1389 6.18874 14.2078 7.23583 15.2168C8.28292 16.2058 9.41378 17.1249 10.576 17.9341C11.7069 18.7233 12.8692 19.3626 14.021 19.8222C15.8115 20.5514 17.4868 20.7213 18.869 20.1718C19.403 19.962 19.8742 19.6424 20.3035 19.1828C20.5443 18.9331 20.7328 18.6633 20.8899 18.3437C21.0155 18.0939 21.0784 17.8342 21.0784 17.5744C21.0784 17.4146 21.0469 17.2547 20.9632 17.0749C20.9318 17.015 20.8689 16.9051 20.67 16.7752L17.1937 14.4176C16.9842 14.2777 16.7958 14.1778 16.6178 14.1079C16.3874 14.018 16.2932 13.9281 15.9371 14.1379C15.7277 14.2378 15.5393 14.3876 15.3298 14.5874L14.534 15.3367C14.1257 15.7163 13.4974 15.8062 13.0158 15.6364L12.7331 15.5165C12.3037 15.2967 11.8011 14.957 11.2462 14.5075C10.7436 14.0979 10.1991 13.6184 9.53943 12.999C9.02635 12.4995 8.51328 11.97 7.97926 11.3806C7.48713 10.8312 7.13112 10.3616 6.91123 9.97203L6.78558 9.67233C6.72275 9.44256 6.70181 9.31269 6.70181 9.17283C6.70181 8.81319 6.83793 8.49351 7.09971 8.24376L7.88502 7.46454C8.09444 7.26474 8.25151 7.07493 8.35621 6.9051C8.43998 6.77523 8.4714 6.66534 8.4714 6.56544C8.4714 6.48552 8.43998 6.36564 8.38763 6.24576C8.31433 6.08592 8.19915 5.9061 8.05256 5.71629L5.62331 2.43957C5.5186 2.29971 5.39295 2.19981 5.23589 2.12988C5.06835 2.05995 4.89035 2.01999 4.71234 2.01999ZM13.466 14.2677L13.2985 14.9471L13.5812 14.2478C13.5288 14.2378 13.487 14.2478 13.466 14.2677Z" fill="#292D32"/>
</svg>
