<svg width="173" height="154" viewBox="0 0 173 154" fill="none" xmlns="http://www.w3.org/2000/svg">
<path d="M168.531 31.0518C170.688 31.0518 172.438 32.5766 172.438 34.4554C172.438 36.3341 170.688 37.859 168.531 37.859C166.375 37.859 164.625 36.3341 164.625 34.4554C164.625 32.5766 166.375 31.0518 168.531 31.0518ZM168.531 119.545C170.688 119.545 172.438 121.07 172.438 122.949C172.438 124.828 170.688 126.353 168.531 126.353C166.375 126.353 164.625 124.828 164.625 122.949C164.625 121.07 166.375 119.545 168.531 119.545Z" fill="#CECFFF"/>
<path d="M149 139.967C153.316 139.967 156.812 143.013 156.812 146.774C156.812 150.535 153.316 153.581 149 153.581C144.684 153.581 141.188 150.535 141.188 146.774C141.188 143.013 144.684 139.967 149 139.967Z" fill="#B42E34"/>
<path d="M141.188 0.418945C143.344 0.418945 145.094 1.94376 145.094 3.82255C145.094 5.70134 143.344 7.22615 141.188 7.22615C139.031 7.22615 137.281 5.70134 137.281 3.82255C137.281 1.94376 139.031 0.418945 141.188 0.418945Z" fill="#CECFFF"/>
<path d="M86.5 10.6299C43.3516 10.6299 8.375 41.1057 8.375 78.7019C8.375 116.298 43.3516 146.774 86.5 146.774C129.648 146.774 164.625 116.298 164.625 78.7019C164.625 41.1057 129.648 10.6299 86.5 10.6299Z" fill="#E7E7E7"/>
<path d="M86.5 129.756C54.1406 129.756 27.9062 106.897 27.9062 78.7015C27.9062 50.5061 54.1406 27.6475 86.5 27.6475C118.859 27.6475 145.094 50.5061 145.094 78.7015C145.094 106.897 118.859 129.756 86.5 129.756Z" fill="white"/>
<path d="M115.543 62.6097C118.594 65.268 118.594 69.5769 115.543 72.2351L87.9215 96.3054L76.8746 105.931L65.8238 96.3054L57.5387 89.083C56.0156 87.7556 55.25 86.0129 55.25 84.2703C55.25 82.5276 56.0156 80.785 57.5387 79.4572C60.5898 76.799 65.5352 76.799 68.5856 79.4572L76.8746 86.6763L104.496 62.6097C106.023 61.2823 108.02 60.6152 110.02 60.6152C112.02 60.6152 114.016 61.2823 115.543 62.6097Z" fill="#B42E34"/>
<path d="M27.9062 146.773C30.0625 146.773 31.8125 148.298 31.8125 150.177C31.8125 152.056 30.0625 153.581 27.9062 153.581C25.7496 153.581 24 152.056 24 150.177C24 148.298 25.7496 146.773 27.9062 146.773Z" fill="#CECFFF"/>
<path d="M18.1406 7.22656C23.5352 7.22656 27.9062 11.0352 27.9062 15.7356C27.9062 20.4359 23.5352 24.2446 18.1406 24.2446C12.7457 24.2446 8.375 20.4359 8.375 15.7356C8.375 11.0352 12.7457 7.22656 18.1406 7.22656Z" fill="#B42E34"/>
<path d="M4.46875 34.4551C6.625 34.4551 8.375 35.9799 8.375 37.8587C8.375 39.7375 6.625 41.2623 4.46875 41.2623C2.31211 41.2623 0.5625 39.7375 0.5625 37.8587C0.5625 35.9799 2.31211 34.4551 4.46875 34.4551ZM4.46875 119.545C6.625 119.545 8.375 121.07 8.375 122.949C8.375 124.828 6.625 126.352 4.46875 126.352C2.31211 126.352 0.5625 124.828 0.5625 122.949C0.5625 121.07 2.31211 119.545 4.46875 119.545Z" fill="#CECFFF"/>
<path d="M133.375 78.7025C133.375 76.8227 131.626 75.2989 129.469 75.2989C127.312 75.2989 125.562 76.8227 125.562 78.7025C125.562 97.4703 108.039 112.738 86.5 112.738C84.3426 112.738 82.5938 114.263 82.5938 116.142V129.641C83.8852 129.715 85.1871 129.757 86.5 129.757C87.8129 129.757 89.1145 129.715 90.4062 129.641V119.405C114.432 117.67 133.375 100.077 133.375 78.7025ZM39.625 78.7025C39.625 80.5819 41.3738 82.1061 43.5312 82.1061C45.6883 82.1061 47.4375 80.5819 47.4375 78.7025C47.4375 59.935 64.9605 44.6664 86.5 44.6664C88.657 44.6664 90.4062 43.1427 90.4062 41.2628V27.7642C89.1145 27.69 87.8129 27.6484 86.5 27.6484C85.1871 27.6484 83.8852 27.69 82.5938 27.7642V37.9998C58.568 39.7353 39.625 57.3278 39.625 78.7025Z" fill="#D0DCE7"/>
</svg>
