<svg width="40" height="40" viewBox="0 0 40 40" fill="none" xmlns="http://www.w3.org/2000/svg">
<rect width="40" height="40" rx="20" fill="#797979"/>
<path d="M24.1667 27.7087H15.8334C12.7917 27.7087 11.0417 25.9587 11.0417 22.917V17.0837C11.0417 14.042 12.7917 12.292 15.8334 12.292H24.1667C27.2084 12.292 28.9584 14.042 28.9584 17.0837V22.917C28.9584 25.9587 27.2084 27.7087 24.1667 27.7087ZM15.8334 13.542C13.45 13.542 12.2917 14.7003 12.2917 17.0837V22.917C12.2917 25.3003 13.45 26.4587 15.8334 26.4587H24.1667C26.55 26.4587 27.7084 25.3003 27.7084 22.917V17.0837C27.7084 14.7003 26.55 13.542 24.1667 13.542H15.8334Z" fill="white"/>
<path d="M19.9998 20.725C19.2998 20.725 18.5915 20.5083 18.0498 20.0666L15.4415 17.9833C15.1748 17.7666 15.1248 17.375 15.3415 17.1083C15.5581 16.8416 15.9498 16.7916 16.2165 17.0083L18.8248 19.0916C19.4581 19.6 20.5331 19.6 21.1665 19.0916L23.7748 17.0083C24.0415 16.7916 24.4415 16.8333 24.6498 17.1083C24.8665 17.375 24.8248 17.775 24.5498 17.9833L21.9415 20.0666C21.4081 20.5083 20.6998 20.725 19.9998 20.725Z" fill="white"/>
</svg>
