<svg width="35" height="34" viewBox="0 0 35 34" fill="none" xmlns="http://www.w3.org/2000/svg">
<path d="M30.2572 3.7621C25.2241 -1.25403 17.0622 -1.25403 12.063 3.7621C8.54324 7.2479 7.489 12.264 8.84931 16.685L0.857492 24.6768C0.296365 25.255 -0.0947239 26.3942 0.0243031 27.2104L0.534419 30.9173C0.721461 32.1415 1.86072 33.2978 3.085 33.4678L6.79184 33.9779C7.60802 34.097 8.74728 33.7229 9.32541 33.1278L10.7197 31.7334C11.0598 31.4104 11.0598 30.8662 10.7197 30.5262L7.42098 27.2274C6.92787 26.7343 6.92787 25.9181 7.42098 25.425C7.91409 24.9319 8.73028 24.9319 9.22339 25.425L12.5391 28.7408C12.8622 29.0638 13.4063 29.0638 13.7294 28.7408L17.3343 25.1529C21.7383 26.5303 26.7544 25.459 30.2572 21.9732C35.2733 16.9571 35.2733 8.77824 30.2572 3.7621ZM21.2622 16.9911C18.9156 16.9911 17.0112 15.0867 17.0112 12.7401C17.0112 10.3936 18.9156 8.48918 21.2622 8.48918C23.6087 8.48918 25.5131 10.3936 25.5131 12.7401C25.5131 15.0867 23.6087 16.9911 21.2622 16.9911Z" fill="black"/>
</svg>
