<svg width="39" height="39" viewBox="0 0 39 39" fill="none" xmlns="http://www.w3.org/2000/svg">
<path opacity="0.4" d="M19.4006 38.8013C30.1152 38.8013 38.8013 30.1152 38.8013 19.4006C38.8013 8.68596 30.1152 0 19.4006 0C8.68596 0 0 8.68596 0 19.4006C0 30.1152 8.68596 38.8013 19.4006 38.8013Z" fill="#292D32"/>
<path d="M26.6741 16.9366V15.5204C26.6741 13.7161 26.6741 8.24512 19.3989 8.24512C12.1237 8.24512 12.1237 13.7161 12.1237 15.5204V16.9366C9.75687 17.4604 8.96143 18.9931 8.96143 22.3106V24.2506C8.96143 28.5188 10.2807 29.838 14.5488 29.838H24.249C28.5172 29.838 29.8366 28.5188 29.8366 24.2506V22.3106C29.8366 18.9931 29.041 17.4604 26.6741 16.9366ZM19.3989 25.4147C18.2155 25.4147 17.265 24.464 17.265 23.2806C17.265 22.0972 18.2155 21.1465 19.3989 21.1465C20.5823 21.1465 21.533 22.0972 21.533 23.2806C21.533 24.464 20.5823 25.4147 19.3989 25.4147ZM23.764 16.7232H15.0338V15.5204C15.0338 12.6879 15.7322 11.1552 19.3989 11.1552C23.0656 11.1552 23.764 12.6879 23.764 15.5204V16.7232Z" fill="#292D32"/>
</svg>
