<svg width="24" height="25" viewBox="0 0 24 25" fill="none" xmlns="http://www.w3.org/2000/svg">
<path d="M18 11.25C17.59 11.25 17.25 10.91 17.25 10.5V8.5C17.25 5.35 16.36 3.25 12 3.25C7.64 3.25 6.75 5.35 6.75 8.5V10.5C6.75 10.91 6.41 11.25 6 11.25C5.59 11.25 5.25 10.91 5.25 10.5V8.5C5.25 5.6 5.95 1.75 12 1.75C18.05 1.75 18.75 5.6 18.75 8.5V10.5C18.75 10.91 18.41 11.25 18 11.25Z" fill="#484848"/>
<path d="M17 23.25H7C2.59 23.25 1.25 21.91 1.25 17.5V15.5C1.25 11.09 2.59 9.75 7 9.75H17C21.41 9.75 22.75 11.09 22.75 15.5V17.5C22.75 21.91 21.41 23.25 17 23.25ZM7 11.25C3.42 11.25 2.75 11.93 2.75 15.5V17.5C2.75 21.07 3.42 21.75 7 21.75H17C20.58 21.75 21.25 21.07 21.25 17.5V15.5C21.25 11.93 20.58 11.25 17 11.25H7Z" fill="#484848"/>
<path d="M8 17.4999C7.87 17.4999 7.74 17.4699 7.62 17.4199C7.49 17.3699 7.39001 17.2999 7.29001 17.2099C7.11001 17.0199 7 16.7699 7 16.4999C7 16.3699 7.02999 16.2399 7.07999 16.1199C7.12999 15.9899 7.20001 15.8899 7.29001 15.7899C7.39001 15.6999 7.49 15.6299 7.62 15.5799C7.98 15.4199 8.42999 15.5099 8.70999 15.7899C8.79999 15.8899 8.87001 15.9999 8.92001 16.1199C8.97001 16.2399 9 16.3699 9 16.4999C9 16.7599 8.88999 17.0199 8.70999 17.2099C8.51999 17.3899 8.26 17.4999 8 17.4999Z" fill="#484848"/>
<path d="M12 17.4999C11.74 17.4999 11.48 17.3899 11.29 17.2099C11.11 17.0199 11 16.7699 11 16.4999C11 16.3699 11.02 16.2399 11.08 16.1199C11.13 15.9999 11.2 15.8899 11.29 15.7899C11.52 15.5599 11.87 15.4499 12.19 15.5199C12.26 15.5299 12.32 15.5499 12.38 15.5799C12.44 15.5999 12.5 15.6299 12.56 15.6699C12.61 15.6999 12.66 15.7499 12.71 15.7899C12.8 15.8899 12.87 15.9999 12.92 16.1199C12.97 16.2399 13 16.3699 13 16.4999C13 16.7699 12.89 17.0199 12.71 17.2099C12.66 17.2499 12.61 17.2899 12.56 17.3299C12.5 17.3699 12.44 17.3999 12.38 17.4199C12.32 17.4499 12.26 17.4699 12.19 17.4799C12.13 17.4899 12.06 17.4999 12 17.4999Z" fill="#484848"/>
<path d="M16 17.4999C15.73 17.4999 15.48 17.3899 15.29 17.2099C15.2 17.1099 15.13 16.9999 15.08 16.8799C15.03 16.7599 15 16.6299 15 16.4999C15 16.2399 15.11 15.9799 15.29 15.7899C15.34 15.7499 15.39 15.7099 15.44 15.6699C15.5 15.6299 15.56 15.5999 15.62 15.5799C15.68 15.5499 15.74 15.5299 15.8 15.5199C16.13 15.4499 16.47 15.5599 16.71 15.7899C16.89 15.9799 17 16.2299 17 16.4999C17 16.6299 16.97 16.7599 16.92 16.8799C16.87 17.0099 16.8 17.1099 16.71 17.2099C16.52 17.3899 16.26 17.4999 16 17.4999Z" fill="#484848"/>
</svg>
