<svg width="254" height="148" viewBox="0 0 254 148" fill="none" xmlns="http://www.w3.org/2000/svg">
<g clip-path="url(#clip0_712_1714)">
<path d="M39.3099 102.56V130.58H34.4499V102.56C34.4499 99.2201 31.6799 96.4401 28.3299 96.4401C24.9799 96.4401 22.2099 99.2201 22.2099 102.56V130.58H17.3499V102.56C17.3499 99.2201 14.6299 96.4401 11.2899 96.4401C7.94995 96.4401 5.16995 99.2201 5.16995 102.56V130.58H0.319946V102.56C0.319946 96.5001 5.23995 91.5801 11.2999 91.5801C14.7099 91.5801 17.7999 93.1601 19.8199 95.6801C21.8399 93.1501 24.8699 91.5801 28.3399 91.5801C34.3999 91.5801 39.3199 96.5001 39.3199 102.56H39.3099Z" fill="#B42E34" stroke="#172934" stroke-width="0.64"/>
<path d="M48.02 130.58H43.1V111.08C43.1 100.29 51.87 91.5801 62.6 91.5801C73.33 91.5801 82.1 100.29 82.1 111.08V130.58H77.24V120.04H48.02V130.58ZM48.02 115.12H77.24V111.08C77.24 103 70.68 96.4401 62.6 96.4401C54.52 96.4401 48.02 103 48.02 111.08V115.12Z" fill="#B42E34" stroke="#172934" stroke-width="0.64"/>
<path d="M124.88 119.6C124.88 125.66 119.96 130.58 113.83 130.58H85.88V125.72H113.83C117.24 125.72 119.95 123.01 119.95 119.6C119.95 116.19 117.23 113.54 113.83 113.54H96.86C90.8 113.54 85.88 108.62 85.88 102.56C85.88 96.5001 90.8 91.5801 96.86 91.5801H124.81V96.4401H96.86C93.45 96.4401 90.74 99.2201 90.74 102.56C90.74 105.9 93.45 108.62 96.86 108.62V108.68H113.83C119.95 108.68 124.88 113.54 124.88 119.6Z" fill="#B42E34" stroke="#172934" stroke-width="0.64"/>
<path d="M128.66 91.7695H167.72V96.6895H150.62V130.58H145.76V96.6895H128.66V91.7695Z" fill="#B42E34" stroke="#172934" stroke-width="0.64"/>
<path d="M210.5 130.58H171.5V91.5801H210.5V96.4401H176.36V108.56H207.28V113.48H176.36V125.72H210.5V130.58Z" fill="#B42E34" stroke="#172934" stroke-width="0.64"/>
<path d="M253.34 119.6V130.58H248.42V119.6C248.42 116.25 245.71 113.48 242.3 113.48H219.2V130.58H214.28V91.5801H242.3C248.35 91.5801 253.28 96.5001 253.28 102.56C253.28 105.97 251.7 109.06 249.24 111.08C251.7 113.1 253.34 116.13 253.34 119.6ZM248.42 102.56C248.42 99.1501 245.71 96.4401 242.3 96.4401H219.2V108.62H242.3C245.71 108.62 248.42 105.91 248.42 102.56Z" fill="#B42E34" stroke="#172934" stroke-width="0.64"/>
<path d="M0.319946 62.2499C0.319946 49.9699 10.2899 39.9199 22.6499 39.9199C32.3299 39.9199 40.5599 46.1299 43.6699 54.7299H37.5999C34.7899 49.3099 29.1499 45.5499 22.6499 45.5499C13.3999 45.5499 5.87995 53.0599 5.87995 62.2399C5.87995 71.4199 13.3999 78.9999 22.6499 78.9999C29.9399 78.9999 36.1599 74.2999 38.4699 67.7299H23.4399V62.1599H44.9699V62.2299C44.9699 74.5899 34.9299 84.5499 22.6499 84.5499C10.3699 84.5499 0.319946 74.6099 0.319946 62.2499Z" fill="#696A6D" stroke="#172934" stroke-width="0.64"/>
<path d="M88.39 39.9297H93.95V62.2597C93.95 74.6197 83.98 84.5797 71.63 84.5797C59.28 84.5797 49.3 74.6097 49.3 62.2597V39.9297H54.94V62.2597C54.94 71.5097 62.38 79.0197 71.63 79.0197C80.88 79.0197 88.39 71.5097 88.39 62.2597V39.9297Z" fill="#696A6D" stroke="#172934" stroke-width="0.64"/>
<path d="M204.29 72.0097V84.5797H198.66V72.0097C198.66 68.1797 195.55 64.9997 191.65 64.9997H165.2V84.5797H159.57V39.9297H191.65C198.58 39.9297 204.22 45.5697 204.22 52.4997C204.22 56.3997 202.41 59.9397 199.6 62.2497C202.41 64.5597 204.29 68.0297 204.29 71.9997V72.0097ZM198.66 52.4997C198.66 48.5997 195.55 45.4897 191.65 45.4897H165.2V59.4397H191.65C195.55 59.4397 198.66 56.3297 198.66 52.4997Z" fill="#696A6D" stroke="#172934" stroke-width="0.64"/>
<path d="M231.02 84.5797H208.62V39.9297H231.02C243.3 39.9297 253.34 49.8997 253.34 62.2597C253.34 74.6197 243.29 84.5797 231.02 84.5797ZM214.25 79.0197H231.02C240.19 79.0197 247.71 71.5097 247.71 62.2597C247.71 53.0097 240.19 45.4997 231.02 45.4997H214.25V79.0197Z" fill="#696A6D" stroke="#172934" stroke-width="0.64"/>
<path d="M97.66 39.8401L98.99 37.3301C98.99 37.3301 115.91 40.1101 126.35 24.3701C126.35 24.3701 136.06 40.6301 152.71 37.1901L155.17 39.8301C155.17 39.8301 99.11 46.4401 97.66 39.8301V39.8401Z" fill="#676767"/>
<path d="M155.51 40.08L155.45 39.78L153.03 37.17C152.88 37.19 152.74 37.2 152.59 37.21L151.67 37.3V37.07L153.02 37.15L153 37.13L152.95 36.86L152.66 36.91L151.67 37.08L151.74 19.51C148.77 7.71 143.14 1.26 130.69 0H123.42C110.79 0.87 103.25 11.58 102.66 19.31L102.44 37.24C102.19 37.25 101.93 37.27 101.67 37.28C100.98 37.29 100.29 37.28 99.6001 37.25C98.9101 37.22 99.6801 37.43 99.0001 37.33L97.6801 39.84C97.7401 40.14 97.9201 40.4 98.1401 40.61C98.3601 40.82 98.6201 40.99 98.8901 41.13C99.4301 41.41 100.01 41.6 100.6 41.76C101.19 41.92 101.78 42.04 102.38 42.14L102.36 43.71L108.49 44.31V42.72C109.49 42.76 110.49 42.8 111.48 42.82C116.35 42.89 121.22 42.75 126.09 42.51C130.96 42.27 135.82 41.94 140.67 41.55L144.31 41.24L146.09 41.07V43.43L151.64 44.92L151.66 40.51C152.84 40.39 154.03 40.27 155.21 40.14L155.51 40.11V40.08ZM144.56 36.72C143.91 36.54 143.25 36.38 142.62 36.15C141.97 35.95 141.35 35.69 140.72 35.45L139.79 35.04C139.48 34.9 139.18 34.74 138.88 34.6C138.57 34.45 138.28 34.29 137.98 34.13C137.69 33.96 137.39 33.81 137.1 33.63C136.81 33.45 136.52 33.29 136.23 33.1L135.38 32.54L134.55 31.96C134.27 31.77 134.01 31.56 133.73 31.36C133.46 31.16 133.19 30.95 132.93 30.74C132.66 30.53 132.4 30.31 132.14 30.1C131.88 29.88 131.62 29.66 131.37 29.44C131.11 29.22 130.87 28.99 130.62 28.76C130.12 28.3 129.64 27.82 129.17 27.34C128.7 26.85 128.23 26.36 127.79 25.84C127.35 25.33 126.91 24.81 126.5 24.27L126.36 24.08L126.22 24.28L125.63 25.13C125.43 25.41 125.24 25.7 125.03 25.97C124.6 26.51 124.19 27.06 123.72 27.57C123.49 27.82 123.27 28.09 123.03 28.34L122.31 29.08C122.07 29.33 121.81 29.56 121.56 29.79C121.3 30.02 121.06 30.26 120.79 30.48C120.26 30.91 119.73 31.36 119.16 31.75C118.62 32.17 118.03 32.53 117.45 32.91C116.85 33.25 116.27 33.62 115.65 33.92C115.04 34.25 114.41 34.52 113.78 34.81L112.82 35.2C112.5 35.33 112.17 35.44 111.84 35.56C111.52 35.68 111.19 35.78 110.86 35.88C110.53 35.98 110.2 36.08 109.86 36.17C109.41 36.29 108.95 36.39 108.49 36.49V24.1C109.04 12.91 115.64 7.24 124.53 5.8L130.31 5.75C139.83 7.01 145.28 13.68 146.08 24.96V37.04C145.57 36.95 145.07 36.84 144.56 36.74V36.72Z" fill="#696A6D"/>
<path d="M97.66 39.8396C97.66 39.8396 115.14 43.3296 126.29 27.6396C126.29 27.6396 135.5 40.4696 155.17 39.8396C155.17 39.8396 161.39 74.2197 126.08 87.5696C126.08 87.5696 94.09 78.0496 97.66 39.8396Z" fill="#696A6D"/>
<path d="M101.69 43.7399C101.69 43.7399 116.76 45.7199 126.28 32.6299C126.28 32.6299 133.82 44.2699 150.61 43.7399C150.61 43.7399 154.97 71.7699 126.15 82.8799C126.15 82.8799 100.37 75.4699 101.69 43.7399Z" fill="#B42E34"/>
<path d="M125.96 83.0803L125.9 83.0603C125.83 83.0403 119.35 81.0803 113.16 75.2503C109.52 71.8303 106.69 67.7503 104.74 63.1503C102.31 57.4003 101.25 50.8003 101.62 43.5403V43.3203L101.85 43.3503C101.85 43.3503 102.67 43.4603 104.01 43.4703C108.27 43.5003 118.96 42.5003 126.34 32.5103L126.51 32.2803L126.67 32.5303C126.67 32.5303 128.48 35.3403 132.19 38.0903C135.62 40.6303 141.42 43.6803 149.63 43.7403C150 43.7403 150.36 43.7403 150.73 43.7403H150.91L150.94 43.9103C150.94 43.9803 151.95 51.0603 149.39 59.3903C147.89 64.2803 145.46 68.6403 142.19 72.3403C138.1 76.9603 132.67 80.5703 126.05 83.0703L125.99 83.0903L125.96 83.0803ZM101.99 43.7603C101.25 59.9303 107.79 69.6403 113.41 74.9403C119.21 80.4103 125.26 82.4403 125.94 82.6603C140.74 77.0703 146.64 66.8603 148.98 59.2803C151.3 51.7603 150.68 45.2603 150.54 44.1303C150.23 44.1303 149.91 44.1303 149.61 44.1303C141.28 44.0603 135.4 40.9703 131.92 38.3903C128.78 36.0603 126.99 33.7003 126.47 32.9703C118.98 42.9003 108.26 43.9003 103.98 43.8603C103 43.8603 102.31 43.7903 101.98 43.7603H101.99Z" fill="white"/>
<path d="M97.6601 39.8403C98.3301 39.9603 99.0101 40.0203 99.7001 40.0703C100.38 40.1103 101.06 40.1403 101.74 40.1303C102.42 40.1303 103.11 40.1003 103.78 40.0603C104.12 40.0303 104.46 40.0103 104.8 39.9803C105.14 39.9403 105.48 39.9103 105.82 39.8603C106.16 39.8103 106.49 39.7703 106.83 39.7103L107.84 39.5303L108.84 39.3203L109.83 39.0703C110.49 38.8803 111.14 38.7003 111.78 38.4703L112.26 38.3103L112.74 38.1203C113.05 37.9903 113.38 37.8803 113.69 37.7403L114.62 37.3303L115.53 36.8703C115.84 36.7303 116.13 36.5503 116.43 36.3903C116.72 36.2203 117.02 36.0603 117.31 35.8803L118.17 35.3403C118.45 35.1503 118.73 34.9503 119.01 34.7603L119.43 34.4703L119.83 34.1603C120.1 33.9503 120.37 33.7503 120.63 33.5303L121.4 32.8603C121.53 32.7503 121.66 32.6403 121.78 32.5303L122.14 32.1703L122.87 31.4603L123.56 30.7103C124.03 30.2203 124.45 29.6803 124.88 29.1703C125.1 28.9103 125.3 28.6303 125.5 28.3603L126.11 27.5403L126.31 27.2803L126.5 27.5403C126.89 28.0603 127.34 28.5703 127.8 29.0503C128.26 29.5403 128.74 30.0103 129.24 30.4603C129.74 30.9103 130.24 31.3503 130.77 31.7703C131.03 31.9903 131.29 32.1903 131.56 32.3903C131.82 32.6003 132.1 32.7903 132.37 32.9803C132.64 33.1803 132.92 33.3603 133.2 33.5503C133.48 33.7403 133.76 33.9203 134.05 34.1003L134.48 34.3703L134.91 34.6203C135.2 34.7903 135.49 34.9603 135.79 35.1103C136.38 35.4403 136.98 35.7303 137.58 36.0303L138.49 36.4503C138.8 36.5903 139.11 36.7103 139.42 36.8403L139.89 37.0303L140.36 37.2003C140.68 37.3103 140.98 37.4403 141.31 37.5403L142.27 37.8503C142.59 37.9603 142.91 38.0403 143.24 38.1303C143.88 38.3303 144.54 38.4703 145.19 38.6303C145.52 38.7003 145.85 38.7603 146.18 38.8303C146.51 38.8903 146.84 38.9603 147.17 39.0103L148.17 39.1603C148.5 39.2203 148.83 39.2403 149.17 39.2803C149.5 39.3203 149.83 39.3603 150.17 39.3903L151.18 39.4603L151.68 39.4903H152.18L153.18 39.5303C153.85 39.5303 154.52 39.5203 155.2 39.5103H155.51L155.56 39.8003C155.77 41.0903 155.87 42.3503 155.94 43.6203C156 44.8903 156.01 46.1703 155.97 47.4403C155.89 49.9803 155.62 52.5303 155.15 55.0303C154.68 57.5403 154 60.0003 153.11 62.4003C152.66 63.6003 152.16 64.7703 151.62 65.9303C151.07 67.0803 150.46 68.2003 149.8 69.3003C149.14 70.3903 148.43 71.4603 147.67 72.4803C146.9 73.5003 146.11 74.5003 145.24 75.4403C144.38 76.3803 143.49 77.3003 142.54 78.1603L142.19 78.4903L141.83 78.8003L141.11 79.4303C140.61 79.8303 140.13 80.2503 139.62 80.6303C138.62 81.4203 137.56 82.1303 136.49 82.8303C135.41 83.5103 134.32 84.1703 133.2 84.7703C132.92 84.9203 132.64 85.0703 132.36 85.2203L131.5 85.6503C130.93 85.9403 130.35 86.2003 129.78 86.4703C129.2 86.7403 128.61 86.9703 128.03 87.2303C127.44 87.4703 126.85 87.7003 126.26 87.9303L126.15 87.9703L126.04 87.9303C125.42 87.7303 124.83 87.5103 124.25 87.2703C123.66 87.0303 123.08 86.7803 122.51 86.5203C121.37 85.9803 120.24 85.4203 119.14 84.7803C118.59 84.4803 118.06 84.1303 117.52 83.8003C116.99 83.4603 116.46 83.1103 115.94 82.7603C115.43 82.3903 114.91 82.0403 114.4 81.6503L113.65 81.0703L113.27 80.7803C113.14 80.6803 113.02 80.5803 112.9 80.4803C111.92 79.6803 110.99 78.8303 110.08 77.9603L109.41 77.2903C109.19 77.0703 108.96 76.8503 108.75 76.6103C108.33 76.1403 107.89 75.6803 107.48 75.2003L106.28 73.7403C105.9 73.2403 105.53 72.7303 105.16 72.2203C105.07 72.0903 104.97 71.9703 104.88 71.8403L104.62 71.4403L104.1 70.6503C103.93 70.3803 103.75 70.1303 103.59 69.8503L103.11 69.0303C102.8 68.4803 102.47 67.9403 102.2 67.3703C101.92 66.8103 101.63 66.2503 101.36 65.6803L100.61 63.9403L100.43 63.5003L100.27 63.0603L99.9501 62.1703L99.6301 61.2803C99.5801 61.1303 99.5301 60.9803 99.4901 60.8303L99.3601 60.3803L98.8401 58.5703C98.6901 57.9603 98.5601 57.3403 98.4201 56.7303L98.2201 55.8103L98.0701 54.8803L97.7701 53.0203C97.6901 52.4003 97.6401 51.7703 97.5801 51.1503C97.4301 49.9003 97.4201 48.6403 97.3601 47.3903C97.3201 46.7703 97.3501 46.1303 97.3601 45.5103L97.4001 43.6303C97.4001 43.3203 97.4401 43.0103 97.4601 42.6903L97.5301 41.7503L97.6801 39.8803L97.6601 39.8403ZM97.6601 39.8403L97.5501 41.7203L97.5001 42.6603C97.4901 42.9703 97.4501 43.2803 97.4601 43.6003V45.4803C97.4601 46.1103 97.4401 46.7303 97.4901 47.3603C97.5701 48.6103 97.5901 49.8603 97.7701 51.1003C97.8401 51.7203 97.9001 52.3403 97.9901 52.9603L98.3101 54.8103L98.4701 55.7303L98.6901 56.6403C98.8301 57.2503 98.9701 57.8603 99.1301 58.4603L99.6701 60.2503L99.8101 60.7003C99.8501 60.8503 99.9001 61.0003 99.9601 61.1403L100.29 62.0203L100.62 62.9003L100.78 63.3403L100.97 63.7703L101.72 65.4803C101.99 66.0403 102.28 66.5903 102.57 67.1503C102.84 67.7103 103.17 68.2403 103.48 68.7803L103.96 69.5903C104.12 69.8603 104.3 70.1103 104.47 70.3703L104.99 71.1503L105.25 71.5403C105.34 71.6703 105.43 71.7903 105.52 71.9103C105.9 72.4103 106.27 72.9103 106.65 73.4003L107.85 74.8303C108.26 75.3003 108.69 75.7503 109.12 76.2103C109.32 76.4503 109.55 76.6603 109.78 76.8803L110.45 77.5403C111.35 78.4003 112.28 79.2203 113.25 80.0003C113.37 80.1003 113.49 80.2003 113.61 80.3003L113.98 80.5803L114.72 81.1503C115.22 81.5203 115.74 81.8703 116.25 82.2303C116.76 82.5703 117.29 82.9103 117.82 83.2403C118.35 83.5503 118.88 83.8903 119.43 84.1803C120.51 84.8003 121.62 85.3603 122.75 85.8803C123.88 86.3903 125.04 86.8703 126.2 87.2503H125.98C126.56 87.0203 127.15 86.8003 127.73 86.5603C128.31 86.3103 128.89 86.0803 129.46 85.8103C130.03 85.5403 130.61 85.2903 131.16 85.0003L132.01 84.5803C132.29 84.4303 132.56 84.2803 132.84 84.1303C133.95 83.5403 135.02 82.8803 136.08 82.2103C137.13 81.5103 138.16 80.8103 139.15 80.0303C139.65 79.6603 140.12 79.2403 140.61 78.8503L141.32 78.2303L141.67 77.9203L142.02 77.6003C142.95 76.7503 143.82 75.8503 144.66 74.9203C145.5 73.9903 146.28 73.0103 147.03 72.0103C147.78 71.0003 148.47 69.9603 149.11 68.8903C149.75 67.8103 150.35 66.7103 150.89 65.5803C151.43 64.4503 151.92 63.3003 152.37 62.1203C153.25 59.7703 153.92 57.3503 154.39 54.8903C154.87 52.4203 155.14 49.9203 155.23 47.4103C155.27 46.1603 155.26 44.9003 155.21 43.6503C155.15 42.4003 155.05 41.1403 154.85 39.9203L155.21 40.2103C154.53 40.2103 153.85 40.2303 153.17 40.2203L152.14 40.1903L151.63 40.1703L151.12 40.1303L150.1 40.0503C149.76 40.0303 149.42 39.9803 149.08 39.9403C148.74 39.9003 148.4 39.8703 148.06 39.8103L147.05 39.6503C146.71 39.6003 146.38 39.5303 146.04 39.4603C145.7 39.3903 145.37 39.3303 145.03 39.2503C144.37 39.0803 143.7 38.9403 143.05 38.7403C142.72 38.6403 142.39 38.5603 142.07 38.4503L141.1 38.1203C140.78 38.0103 140.46 37.8803 140.13 37.7703L139.66 37.5903L139.19 37.3903C138.88 37.2503 138.56 37.1303 138.25 36.9903L137.32 36.5603C136.71 36.2503 136.1 35.9503 135.5 35.6103C135.2 35.4503 134.91 35.2703 134.62 35.1003L134.18 34.8403L133.75 34.5603C133.46 34.3803 133.17 34.1903 132.89 34.0003C132.61 33.8103 132.33 33.6203 132.05 33.4103C131.77 33.2103 131.5 33.0103 131.23 32.8003C130.96 32.5903 130.69 32.3803 130.43 32.1603C129.9 31.7303 129.39 31.2703 128.89 30.8103C128.39 30.3403 127.91 29.8603 127.44 29.3603C126.98 28.8603 126.53 28.3403 126.11 27.7803H126.5L125.88 28.6003C125.67 28.8703 125.47 29.1603 125.24 29.4103C124.79 29.9303 124.37 30.4703 123.88 30.9603L123.17 31.7103L122.42 32.4203L122.05 32.7803C121.92 32.9003 121.79 33.0003 121.66 33.1203L120.87 33.7903C120.6 34.0103 120.33 34.2103 120.05 34.4203L119.64 34.7303L119.21 35.0203C118.92 35.2103 118.64 35.4103 118.35 35.6003L117.47 36.1403C117.18 36.3203 116.87 36.4803 116.57 36.6403C116.27 36.8003 115.97 36.9803 115.66 37.1203L114.73 37.5703L113.78 37.9703C113.47 38.1103 113.14 38.2203 112.82 38.3403L112.34 38.5203L111.85 38.6803C111.2 38.9003 110.54 39.0803 109.87 39.2603L108.87 39.5003L107.86 39.7003L106.84 39.8703C106.5 39.9203 106.16 39.9603 105.82 40.0003C105.48 40.0403 105.14 40.0703 104.8 40.1003C104.46 40.1303 104.12 40.1503 103.77 40.1703C103.08 40.2003 102.4 40.2203 101.72 40.2003C101.04 40.2003 100.35 40.1503 99.6701 40.1003C98.9901 40.0403 98.3101 39.9603 97.6401 39.8303L97.6601 39.8403Z" fill="white"/>
<path d="M127.71 76.2496C125.32 72.6296 128.61 68.6296 129.74 66.7996C130.58 65.4496 133.8 59.9796 128.08 53.6296C128.65 55.3496 128.5 57.3296 128.08 58.5296C127.56 60.0896 127.05 61.0596 126.1 62.6896C125.16 64.3096 123.71 66.0696 123.24 67.8896C122.46 71.0096 122.96 74.7196 126.36 76.5296C124.49 76.2196 116.52 71.8496 120.35 63.1696C121.79 59.8996 123.67 57.5396 122.57 54.8796C124.5 56.0796 124.42 57.8996 124.42 59.4596C125.29 58.6596 125.71 57.4396 125.65 56.1896C125.59 54.6896 125.16 53.2496 124.88 51.8296C124.5 49.9196 124.24 48.8896 124.12 47.1996C124 45.5796 124.26 43.8896 124.76 42.3296C125.2 41.1396 125.82 39.9996 126.96 38.8496C125.84 40.7896 125.93 41.9696 126.18 43.9096C126.36 45.4096 127.18 47.2596 128.17 48.9496C129.12 50.5896 130.18 52.2596 131.25 53.8796C132.31 55.6296 133.31 57.5596 133.44 59.6196C133.56 62.4896 132.66 64.8596 131.32 67.5496V67.6096C131.77 66.4096 133.84 64.4596 136.13 65.6796C134.41 65.9896 133.52 67.6696 133.19 69.4896C132.41 73.9096 129.25 75.9696 127.73 76.2396L127.71 76.2496Z" fill="white"/>
<path d="M6.16 138.11C6.16 138.17 6.13 138.22 6.08 138.27C6.03 138.32 5.98 138.34 5.93 138.34H3.6C3.27 138.34 3.03 138.41 2.9 138.55C2.77 138.69 2.7 138.95 2.7 139.32V140.55H5.79C5.86 140.55 5.92 140.57 5.95 140.61C5.99 140.65 6.02 140.71 6.02 140.78V141.6C6.02 141.67 6 141.72 5.95 141.76C5.91 141.8 5.85 141.83 5.79 141.83H2.7V145.33C2.7 145.4 2.68 145.45 2.63001 145.5C2.59001 145.54 2.53 145.56 2.47 145.56H1.35C1.29 145.56 1.23 145.54 1.19 145.49C1.15 145.44 1.13 145.39 1.13 145.33V139.33C1.13 138.72 1.24 138.24 1.46 137.89C1.68 137.55 1.99 137.31 2.37 137.18C2.75 137.05 3.21 136.99 3.77 136.99C4.37 136.99 4.81 137.01 5.1 137.03C5.38 137.06 5.66 137.1 5.94 137.15C6.03 137.15 6.09 137.18 6.12 137.22C6.15 137.25 6.17 137.31 6.17 137.39V138.12L6.16 138.11Z" fill="#172934"/>
<path d="M9.15996 138.03C9.15996 138.09 9.13996 138.15 9.08996 138.19C9.03996 138.24 8.98996 138.26 8.92996 138.26H7.81996C7.75996 138.26 7.70996 138.24 7.65996 138.2C7.60996 138.16 7.57996 138.1 7.57996 138.04V137.03C7.57996 136.97 7.60996 136.92 7.65996 136.87C7.70996 136.82 7.75996 136.8 7.81996 136.8H8.92996C8.98996 136.8 9.03996 136.82 9.08996 136.87C9.13996 136.91 9.15996 136.97 9.15996 137.02V138.03ZM9.12996 145.32C9.12996 145.38 9.10996 145.44 9.05996 145.49C9.00996 145.54 8.95996 145.56 8.89996 145.56H7.83996C7.77996 145.56 7.72996 145.54 7.67996 145.49C7.62996 145.44 7.60996 145.38 7.60996 145.32V139.35C7.60996 139.29 7.62996 139.23 7.67996 139.19C7.72996 139.14 7.77996 139.12 7.83996 139.12H8.89996C8.95996 139.12 9.01996 139.14 9.05996 139.19C9.10996 139.23 9.12996 139.29 9.12996 139.35V145.32Z" fill="#172934"/>
<path d="M13.61 140.1C13.61 140.24 13.5 140.31 13.28 140.31C13.08 140.31 12.88 140.31 12.68 140.33C12.48 140.34 12.3 140.36 12.16 140.39V145.32C12.16 145.39 12.14 145.44 12.1 145.49C12.06 145.54 12.01 145.56 11.95 145.56H10.88C10.82 145.56 10.77 145.54 10.72 145.49C10.67 145.44 10.65 145.38 10.65 145.32V139.71C10.65 139.55 10.75 139.44 10.96 139.37C11.3 139.25 11.66 139.17 12.02 139.12C12.38 139.07 12.8 139.04 13.28 139.04C13.5 139.04 13.61 139.1 13.61 139.23V140.1Z" fill="#172934"/>
<path d="M19.68 142.57C19.68 142.76 19.61 142.86 19.45 142.86H15.73V142.89C15.73 143.29 15.83 143.63 16.04 143.92C16.25 144.2 16.6 144.34 17.09 144.34C17.75 144.34 18.45 144.3 19.19 144.22H19.22C19.36 144.22 19.43 144.28 19.43 144.39V145.14C19.43 145.24 19.41 145.31 19.39 145.35C19.36 145.39 19.29 145.42 19.2 145.44C18.84 145.51 18.49 145.56 18.16 145.58C17.83 145.61 17.44 145.63 16.98 145.63C16.67 145.63 16.36 145.58 16.04 145.48C15.72 145.38 15.42 145.23 15.14 145.01C14.86 144.79 14.64 144.5 14.47 144.12C14.3 143.75 14.22 143.29 14.22 142.76V141.92C14.22 141.02 14.46 140.32 14.94 139.8C15.42 139.28 16.1 139.02 16.96 139.02C17.53 139.02 18.02 139.14 18.43 139.39C18.84 139.64 19.15 139.98 19.36 140.41C19.57 140.85 19.67 141.35 19.67 141.92V142.55L19.68 142.57ZM18.16 141.78V141.74C18.16 141.45 18.11 141.2 18.01 140.99C17.91 140.78 17.77 140.61 17.59 140.5C17.41 140.39 17.2 140.33 16.96 140.33C16.59 140.33 16.3 140.45 16.08 140.7C15.85 140.95 15.74 141.29 15.74 141.73V141.77H18.16V141.78Z" fill="#172934"/>
<path d="M24.27 140.03C24.27 140.09 24.25 140.14 24.21 140.19C24.16 140.23 24.11 140.25 24.04 140.25H22.43V145.32C22.43 145.39 22.41 145.44 22.37 145.49C22.33 145.53 22.27 145.56 22.2 145.56H21.15C21.09 145.56 21.03 145.54 20.98 145.49C20.93 145.44 20.91 145.39 20.91 145.32V138.56C20.91 138.08 20.99 137.71 21.17 137.45C21.34 137.18 21.57 137 21.85 136.89C22.13 136.78 22.46 136.73 22.85 136.73C23.05 136.73 23.27 136.73 23.49 136.75C23.72 136.77 23.91 136.79 24.07 136.81C24.21 136.83 24.28 136.89 24.28 136.99V137.66C24.28 137.79 24.22 137.86 24.1 137.86H23.11C22.84 137.86 22.66 137.91 22.57 137.99C22.48 138.08 22.44 138.27 22.44 138.54V139.1H24.05C24.12 139.1 24.18 139.12 24.22 139.16C24.26 139.2 24.28 139.26 24.28 139.33V140.02L24.27 140.03Z" fill="#172934"/>
<path d="M26.87 138.03C26.87 138.09 26.84 138.15 26.8 138.19C26.75 138.24 26.7 138.26 26.65 138.26H25.54C25.47 138.26 25.42 138.24 25.37 138.2C25.32 138.16 25.29 138.1 25.29 138.04V137.03C25.29 136.97 25.32 136.92 25.37 136.87C25.42 136.82 25.47 136.8 25.54 136.8H26.65C26.7 136.8 26.75 136.82 26.8 136.87C26.85 136.91 26.87 136.97 26.87 137.02V138.03ZM26.84 145.32C26.84 145.38 26.82 145.44 26.77 145.49C26.72 145.54 26.67 145.56 26.61 145.56H25.56C25.5 145.56 25.44 145.54 25.4 145.49C25.35 145.44 25.33 145.38 25.33 145.32V139.35C25.33 139.29 25.35 139.23 25.4 139.19C25.45 139.14 25.5 139.12 25.56 139.12H26.61C26.67 139.12 26.73 139.14 26.77 139.19C26.82 139.23 26.84 139.29 26.84 139.35V145.32Z" fill="#172934"/>
<path d="M33.47 145.53C33.47 146.34 33.26 146.92 32.85 147.29C32.43 147.66 31.79 147.84 30.91 147.84C30.03 147.84 29.33 147.75 28.77 147.56C28.62 147.52 28.55 147.43 28.55 147.28V146.68C28.55 146.55 28.62 146.48 28.76 146.48H28.79C29.86 146.57 30.57 146.62 30.91 146.62C31.21 146.62 31.44 146.59 31.59 146.53C31.74 146.47 31.84 146.37 31.89 146.23C31.94 146.09 31.97 145.88 31.97 145.6V145.51C31.53 145.59 31.17 145.63 30.87 145.63C29.98 145.63 29.3 145.38 28.83 144.88C28.37 144.38 28.13 143.68 28.13 142.77V141.89C28.13 141.3 28.23 140.79 28.43 140.35C28.63 139.92 28.93 139.59 29.34 139.36C29.75 139.13 30.25 139.02 30.86 139.02C31.1 139.02 31.36 139.03 31.62 139.06C31.88 139.08 32.15 139.12 32.43 139.17C32.71 139.22 32.95 139.27 33.15 139.32C33.28 139.36 33.36 139.39 33.4 139.43C33.44 139.47 33.46 139.54 33.46 139.63V145.52L33.47 145.53ZM31.96 144.32V140.37C31.82 140.34 31.65 140.32 31.47 140.3C31.29 140.28 31.08 140.27 30.86 140.27C30.4 140.27 30.08 140.41 29.9 140.7C29.73 140.99 29.64 141.39 29.64 141.91V142.79C29.64 143.31 29.73 143.71 29.91 144C30.09 144.29 30.41 144.43 30.87 144.43C31.17 144.43 31.54 144.4 31.97 144.34L31.96 144.32Z" fill="#172934"/>
<path d="M40.2199 145.31C40.2199 145.38 40.1999 145.43 40.1499 145.48C40.1099 145.52 40.0499 145.55 39.9899 145.55H38.9399C38.8799 145.55 38.8199 145.53 38.7799 145.48C38.7399 145.43 38.7099 145.37 38.7099 145.31V141.43C38.7099 141.03 38.6199 140.74 38.4399 140.56C38.2599 140.38 37.9599 140.29 37.5399 140.29C37.0799 140.29 36.7099 140.32 36.4399 140.39V145.31C36.4399 145.38 36.4199 145.43 36.3799 145.48C36.3399 145.52 36.2899 145.55 36.2199 145.55H35.1699C35.1099 145.55 35.0599 145.53 35.0099 145.48C34.9599 145.43 34.9399 145.37 34.9399 145.31V137.09C34.9399 137.04 34.9599 136.98 35.0099 136.93C35.0599 136.88 35.1099 136.86 35.1699 136.86H36.2199C36.2799 136.86 36.3299 136.88 36.3799 136.92C36.4199 136.97 36.4399 137.02 36.4399 137.08V139.14C36.8099 139.07 37.1799 139.03 37.5399 139.03C38.4399 139.03 39.1099 139.24 39.5499 139.67C39.9899 140.09 40.2199 140.68 40.2199 141.43V145.31Z" fill="#172934"/>
<path d="M45.01 145.35C45.01 145.47 44.94 145.53 44.79 145.56C44.65 145.58 44.46 145.6 44.19 145.62C43.93 145.64 43.68 145.65 43.45 145.65C43.16 145.65 42.89 145.62 42.68 145.56C42.46 145.5 42.28 145.41 42.12 145.28C41.97 145.15 41.85 144.98 41.77 144.75C41.69 144.52 41.64 144.25 41.64 143.94V138.19C41.64 138.06 41.72 137.98 41.87 137.96L42.93 137.78H42.96C43.01 137.78 43.06 137.8 43.09 137.85C43.13 137.9 43.15 137.95 43.15 138.01V139.13H44.76C44.83 139.13 44.89 139.15 44.93 139.19C44.97 139.23 44.99 139.29 44.99 139.36V140.04C44.99 140.1 44.97 140.16 44.92 140.2C44.87 140.24 44.82 140.26 44.76 140.26H43.15V143.95C43.15 144.17 43.21 144.31 43.31 144.38C43.41 144.45 43.6 144.48 43.85 144.48H44.76C44.92 144.48 45 144.54 45 144.65V145.36L45.01 145.35Z" fill="#172934"/>
<path d="M47.61 138.03C47.61 138.09 47.58 138.15 47.54 138.19C47.49 138.24 47.44 138.26 47.38 138.26H46.27C46.2 138.26 46.15 138.24 46.1 138.2C46.05 138.16 46.02 138.1 46.02 138.04V137.03C46.02 136.97 46.04 136.92 46.1 136.87C46.15 136.82 46.2 136.8 46.27 136.8H47.38C47.43 136.8 47.48 136.82 47.54 136.87C47.59 136.91 47.61 136.97 47.61 137.02V138.03ZM47.57 145.32C47.57 145.38 47.55 145.44 47.5 145.49C47.45 145.54 47.4 145.56 47.34 145.56H46.28C46.22 145.56 46.17 145.54 46.12 145.49C46.07 145.44 46.05 145.38 46.05 145.32V139.35C46.05 139.29 46.07 139.23 46.12 139.19C46.16 139.14 46.22 139.12 46.28 139.12H47.34C47.4 139.12 47.45 139.14 47.5 139.19C47.54 139.23 47.56 139.29 47.56 139.35V145.32H47.57Z" fill="#172934"/>
<path d="M54.31 145.31C54.31 145.38 54.29 145.43 54.25 145.48C54.21 145.53 54.16 145.55 54.09 145.55H53.02C52.96 145.55 52.91 145.53 52.87 145.48C52.83 145.43 52.81 145.38 52.81 145.31V141.36C52.81 141.03 52.75 140.77 52.65 140.57C52.54 140.38 52.34 140.29 52.03 140.29H51.32C51.02 140.29 50.81 140.39 50.7 140.57C50.59 140.76 50.54 141.03 50.54 141.36V145.31C50.54 145.38 50.52 145.43 50.48 145.48C50.44 145.53 50.39 145.55 50.32 145.55H49.25C49.19 145.55 49.13 145.53 49.09 145.48C49.05 145.43 49.03 145.38 49.03 145.31V141.36C49.03 140.65 49.23 140.09 49.62 139.67C50.02 139.25 50.58 139.04 51.31 139.04H52.02C52.5 139.04 52.91 139.14 53.26 139.33C53.6 139.52 53.86 139.79 54.04 140.14C54.22 140.49 54.3 140.9 54.3 141.36V145.31H54.31Z" fill="#172934"/>
<path d="M60.85 145.53C60.85 146.34 60.64 146.92 60.23 147.29C59.81 147.66 59.16 147.84 58.29 147.84C57.42 147.84 56.72 147.75 56.15 147.56C56 147.52 55.92 147.43 55.92 147.28V146.68C55.92 146.55 55.99 146.48 56.13 146.48H56.16C57.23 146.57 57.94 146.62 58.28 146.62C58.58 146.62 58.81 146.59 58.96 146.53C59.11 146.47 59.22 146.37 59.26 146.23C59.31 146.09 59.34 145.88 59.34 145.6V145.51C58.9 145.59 58.54 145.63 58.24 145.63C57.35 145.63 56.67 145.38 56.2 144.88C55.74 144.38 55.51 143.68 55.51 142.77V141.89C55.51 141.3 55.61 140.79 55.81 140.35C56.01 139.92 56.31 139.59 56.73 139.36C57.13 139.13 57.64 139.02 58.24 139.02C58.49 139.02 58.74 139.03 59.01 139.06C59.27 139.08 59.54 139.12 59.82 139.17C60.1 139.22 60.34 139.27 60.54 139.32C60.67 139.36 60.76 139.39 60.79 139.43C60.83 139.47 60.85 139.54 60.85 139.63V145.52V145.53ZM59.34 144.32V140.37C59.2 140.34 59.04 140.32 58.85 140.3C58.67 140.28 58.46 140.27 58.24 140.27C57.78 140.27 57.46 140.41 57.29 140.7C57.11 140.99 57.02 141.39 57.02 141.91V142.79C57.02 143.31 57.11 143.71 57.29 144C57.47 144.29 57.79 144.43 58.24 144.43C58.55 144.43 58.91 144.4 59.34 144.34V144.32Z" fill="#172934"/>
<path d="M81.7901 143.26C81.7901 143.92 81.5601 144.49 81.0801 144.95C80.6101 145.41 79.8501 145.65 78.7901 145.65C78.0301 145.65 77.3601 145.58 76.7701 145.45C76.6301 145.41 76.5501 145.34 76.5501 145.22V144.4C76.5501 144.34 76.5701 144.29 76.6101 144.25C76.6501 144.21 76.7001 144.18 76.7701 144.18H76.7901C76.9901 144.2 77.2301 144.22 77.4901 144.24C77.7501 144.26 77.9901 144.27 78.2301 144.28C78.4601 144.29 78.6601 144.3 78.8201 144.3C79.3001 144.3 79.6401 144.21 79.8401 144.05C80.0401 143.88 80.1401 143.62 80.1401 143.27C80.1401 143.05 80.0701 142.87 79.9301 142.72C79.8001 142.57 79.5401 142.38 79.1601 142.16L77.6601 141.26C77.3201 141.05 77.0501 140.84 76.8401 140.62C76.6401 140.4 76.5001 140.17 76.4201 139.94C76.3501 139.7 76.3101 139.45 76.3101 139.17C76.3101 138.73 76.4001 138.34 76.5901 138.03C76.7801 137.71 77.0901 137.46 77.5101 137.28C77.9401 137.1 78.4901 137 79.1601 137C79.5301 137 79.9401 137.02 80.3901 137.07C80.8501 137.11 81.1701 137.16 81.3501 137.21C81.4901 137.23 81.5501 137.31 81.5501 137.43V138.27C81.5501 138.33 81.5301 138.38 81.5001 138.42C81.4601 138.46 81.4201 138.48 81.3601 138.48H81.3401C80.5001 138.41 79.7501 138.37 79.0901 138.37C78.2901 138.37 77.9001 138.64 77.9001 139.18C77.9001 139.37 77.9601 139.53 78.0901 139.67C78.2201 139.81 78.4701 139.98 78.8301 140.19L80.2001 140.96C80.8001 141.29 81.2101 141.63 81.4401 142C81.6701 142.37 81.7801 142.8 81.7801 143.28L81.7901 143.26Z" fill="#172934"/>
<path d="M88.1499 145.04C88.1499 145.13 88.1299 145.2 88.0899 145.23C88.0499 145.27 87.9699 145.31 87.8399 145.34C87.4599 145.44 87.0699 145.51 86.6799 145.56C86.2899 145.61 85.9099 145.64 85.5499 145.64C84.6499 145.64 83.9799 145.39 83.5099 144.89C83.0499 144.39 82.8199 143.69 82.8199 142.78V141.9C82.8199 141.31 82.9199 140.8 83.1199 140.36C83.3199 139.93 83.6199 139.6 84.0299 139.37C84.4399 139.14 84.9399 139.03 85.5499 139.03C85.7999 139.03 86.0499 139.04 86.3099 139.07C86.5699 139.09 86.8399 139.13 87.1199 139.18C87.3999 139.23 87.6399 139.28 87.8399 139.33C87.9699 139.37 88.0499 139.4 88.0899 139.44C88.1299 139.48 88.1499 139.55 88.1499 139.64V145.04ZM86.6399 144.33V140.34C86.5099 140.31 86.3599 140.3 86.1799 140.28C85.9999 140.27 85.7899 140.26 85.5499 140.26C85.0899 140.26 84.7699 140.4 84.5899 140.69C84.4099 140.98 84.3199 141.38 84.3199 141.9V142.78C84.3199 143.3 84.4099 143.7 84.5899 143.99C84.7699 144.28 85.0899 144.42 85.5499 144.42C86.0299 144.42 86.3899 144.4 86.6499 144.34L86.6399 144.33Z" fill="#172934"/>
<path d="M92.93 140.03C92.93 140.09 92.91 140.14 92.86 140.19C92.82 140.23 92.77 140.25 92.7 140.25H91.09V145.32C91.09 145.39 91.07 145.44 91.03 145.49C90.99 145.53 90.93 145.56 90.87 145.56H89.82C89.76 145.56 89.7 145.54 89.65 145.49C89.6 145.44 89.58 145.39 89.58 145.32V138.56C89.58 138.08 89.67 137.71 89.84 137.45C90.01 137.18 90.23 137 90.52 136.89C90.8 136.78 91.14 136.73 91.52 136.73C91.72 136.73 91.94 136.73 92.17 136.75C92.4 136.77 92.59 136.79 92.75 136.81C92.89 136.83 92.96 136.89 92.96 136.99V137.66C92.96 137.79 92.9 137.86 92.79 137.86H91.79C91.52 137.86 91.34 137.91 91.25 137.99C91.16 138.08 91.11 138.27 91.11 138.54V139.1H92.72C92.79 139.1 92.85 139.12 92.88 139.16C92.92 139.2 92.94 139.26 92.94 139.33V140.02L92.93 140.03Z" fill="#172934"/>
<path d="M98.99 142.57C98.99 142.76 98.91 142.86 98.76 142.86H95.04V142.89C95.04 143.29 95.14 143.63 95.35 143.92C95.56 144.2 95.91 144.34 96.4 144.34C97.05 144.34 97.76 144.3 98.5 144.22H98.54C98.67 144.22 98.74 144.28 98.74 144.39V145.14C98.74 145.24 98.72 145.31 98.69 145.35C98.66 145.39 98.6 145.42 98.5 145.44C98.14 145.51 97.79 145.56 97.46 145.58C97.13 145.61 96.74 145.63 96.28 145.63C95.97 145.63 95.66 145.58 95.33 145.48C95.01 145.38 94.71 145.23 94.43 145.01C94.16 144.79 93.93 144.5 93.76 144.12C93.59 143.75 93.51 143.29 93.51 142.76V141.92C93.51 141.02 93.75 140.32 94.23 139.8C94.71 139.28 95.39 139.02 96.25 139.02C96.82 139.02 97.31 139.14 97.72 139.39C98.13 139.64 98.44 139.98 98.65 140.41C98.86 140.85 98.97 141.35 98.97 141.92V142.55L98.99 142.57ZM97.47 141.78V141.74C97.47 141.45 97.42 141.2 97.32 140.99C97.22 140.78 97.08 140.61 96.9 140.5C96.72 140.39 96.51 140.33 96.27 140.33C95.91 140.33 95.61 140.45 95.39 140.7C95.17 140.95 95.06 141.29 95.06 141.73V141.77H97.47V141.78Z" fill="#172934"/>
<path d="M103.59 145.35C103.59 145.47 103.52 145.53 103.38 145.56C103.24 145.58 103.04 145.6 102.78 145.62C102.52 145.64 102.27 145.65 102.04 145.65C101.74 145.65 101.49 145.62 101.27 145.56C101.05 145.5 100.87 145.41 100.72 145.28C100.57 145.15 100.45 144.98 100.37 144.75C100.29 144.52 100.25 144.25 100.25 143.94V138.19C100.25 138.06 100.32 137.98 100.48 137.96L101.53 137.78H101.57C101.62 137.78 101.67 137.8 101.71 137.85C101.75 137.9 101.77 137.95 101.77 138.01V139.13H103.38C103.45 139.13 103.51 139.15 103.55 139.19C103.59 139.23 103.61 139.29 103.61 139.36V140.04C103.61 140.1 103.59 140.16 103.54 140.2C103.49 140.24 103.44 140.26 103.38 140.26H101.77V143.95C101.77 144.17 101.82 144.31 101.93 144.38C102.03 144.45 102.21 144.48 102.47 144.48H103.37C103.53 144.48 103.61 144.54 103.61 144.65V145.36L103.59 145.35Z" fill="#172934"/>
<path d="M109.95 145.53C109.95 146.34 109.74 146.92 109.32 147.29C108.91 147.66 108.26 147.84 107.37 147.84C106.48 147.84 105.8 147.75 105.24 147.56C105.08 147.52 105.01 147.43 105.01 147.28V146.68C105.01 146.55 105.08 146.48 105.22 146.48H105.25C106.32 146.57 107.03 146.62 107.37 146.62C107.68 146.62 107.9 146.59 108.05 146.53C108.2 146.47 108.3 146.37 108.35 146.23C108.4 146.09 108.43 145.88 108.43 145.6V145.51C107.99 145.59 107.63 145.63 107.34 145.63C106.44 145.63 105.76 145.38 105.3 144.88C104.84 144.38 104.6 143.68 104.6 142.77V139.34C104.6 139.28 104.62 139.22 104.67 139.18C104.71 139.13 104.76 139.11 104.83 139.11H105.88C105.95 139.11 106.01 139.13 106.04 139.17C106.08 139.21 106.1 139.27 106.1 139.34V142.77C106.1 143.29 106.19 143.69 106.37 143.98C106.55 144.27 106.87 144.41 107.33 144.41C107.63 144.41 107.99 144.38 108.42 144.32V139.34C108.42 139.28 108.44 139.22 108.48 139.18C108.53 139.13 108.58 139.11 108.65 139.11H109.7C109.76 139.11 109.82 139.13 109.86 139.18C109.9 139.22 109.93 139.28 109.93 139.34V145.53H109.95Z" fill="#172934"/>
<path d="M119.44 145.25C119.44 145.39 119.36 145.47 119.21 145.49C119.12 145.5 119.01 145.52 118.88 145.54C118.76 145.56 118.58 145.58 118.34 145.6C118.11 145.62 117.91 145.63 117.76 145.64C117.61 145.64 117.37 145.65 117.03 145.65C116.48 145.65 116.02 145.58 115.63 145.46C115.25 145.33 114.95 145.1 114.72 144.75C114.5 144.41 114.39 143.93 114.39 143.32V139.33C114.39 138.72 114.5 138.24 114.72 137.89C114.95 137.55 115.25 137.31 115.63 137.18C116.02 137.05 116.48 136.99 117.03 136.99C117.63 136.99 118.08 137.01 118.36 137.03C118.64 137.06 118.92 137.1 119.2 137.15C119.29 137.15 119.35 137.18 119.38 137.22C119.41 137.25 119.43 137.31 119.43 137.39V138.12C119.43 138.18 119.4 138.23 119.36 138.28C119.31 138.33 119.26 138.35 119.21 138.35H116.87C116.54 138.35 116.3 138.42 116.17 138.56C116.04 138.7 115.97 138.96 115.97 139.33V140.56H119.06C119.13 140.56 119.18 140.58 119.22 140.62C119.26 140.66 119.29 140.72 119.29 140.79V141.61C119.29 141.68 119.26 141.73 119.22 141.77C119.18 141.81 119.12 141.84 119.06 141.84H115.97V143.32C115.97 143.68 116.03 143.94 116.17 144.09C116.3 144.23 116.54 144.3 116.87 144.3H119.21C119.27 144.3 119.32 144.32 119.37 144.37C119.41 144.41 119.44 144.47 119.44 144.53V145.26V145.25Z" fill="#172934"/>
<path d="M125.97 147.59C125.97 147.64 125.95 147.7 125.9 147.74C125.85 147.79 125.8 147.81 125.75 147.81H124.69C124.64 147.81 124.58 147.79 124.54 147.74C124.49 147.69 124.47 147.64 124.47 147.59V145.56C124.08 145.61 123.71 145.64 123.38 145.64C122.48 145.64 121.81 145.39 121.34 144.89C120.88 144.39 120.65 143.69 120.65 142.78V141.9C120.65 141.31 120.75 140.8 120.95 140.36C121.15 139.93 121.45 139.6 121.86 139.37C122.27 139.14 122.78 139.03 123.38 139.03C123.62 139.03 123.88 139.04 124.14 139.07C124.4 139.09 124.67 139.13 124.95 139.18C125.23 139.23 125.47 139.28 125.68 139.33C125.81 139.37 125.89 139.4 125.93 139.44C125.97 139.48 125.99 139.55 125.99 139.64V147.59H125.97ZM124.46 144.33V140.34C124.33 140.31 124.18 140.3 124 140.28C123.82 140.27 123.61 140.26 123.37 140.26C122.91 140.26 122.59 140.4 122.41 140.69C122.23 140.98 122.14 141.38 122.14 141.9V142.78C122.14 143.3 122.23 143.7 122.41 143.99C122.59 144.28 122.91 144.42 123.37 144.42C123.73 144.42 124.09 144.4 124.46 144.34V144.33Z" fill="#172934"/>
<path d="M132.67 142.88C132.67 143.63 132.51 144.21 132.2 144.63C131.89 145.04 131.53 145.32 131.15 145.45C130.76 145.58 130.4 145.65 130.06 145.65H129.99C129.65 145.65 129.29 145.58 128.91 145.45C128.52 145.32 128.17 145.05 127.86 144.63C127.55 144.22 127.39 143.64 127.39 142.88V139.35C127.39 139.29 127.41 139.23 127.45 139.18C127.49 139.13 127.54 139.11 127.61 139.11H128.68C128.74 139.11 128.79 139.13 128.84 139.18C128.88 139.23 128.9 139.29 128.9 139.35V142.88C128.9 143.25 128.95 143.55 129.03 143.76C129.12 143.98 129.24 144.13 129.4 144.21C129.56 144.29 129.76 144.33 130 144.33H130.07C130.31 144.33 130.51 144.29 130.67 144.21C130.83 144.13 130.95 143.98 131.04 143.76C131.13 143.54 131.17 143.25 131.17 142.88V139.35C131.17 139.29 131.2 139.23 131.23 139.18C131.27 139.13 131.33 139.11 131.39 139.11H132.46C132.52 139.11 132.58 139.13 132.62 139.18C132.66 139.23 132.68 139.29 132.68 139.35V142.88H132.67Z" fill="#172934"/>
<path d="M135.68 138.03C135.68 138.09 135.66 138.15 135.61 138.19C135.56 138.24 135.51 138.26 135.45 138.26H134.34C134.28 138.26 134.23 138.24 134.18 138.2C134.13 138.16 134.1 138.1 134.1 138.04V137.03C134.1 136.97 134.13 136.92 134.18 136.87C134.23 136.82 134.28 136.8 134.34 136.8H135.45C135.51 136.8 135.56 136.82 135.61 136.87C135.66 136.91 135.68 136.97 135.68 137.02V138.03ZM135.65 145.32C135.65 145.38 135.62 145.44 135.58 145.49C135.53 145.54 135.48 145.56 135.42 145.56H134.36C134.3 145.56 134.25 145.54 134.2 145.49C134.15 145.44 134.13 145.38 134.13 145.32V139.35C134.13 139.29 134.15 139.23 134.2 139.19C134.24 139.14 134.3 139.12 134.36 139.12H135.42C135.48 139.12 135.54 139.14 135.58 139.19C135.62 139.23 135.65 139.29 135.65 139.35V145.32Z" fill="#172934"/>
<path d="M142.5 142.78C142.5 143.38 142.4 143.89 142.2 144.32C142 144.75 141.69 145.08 141.29 145.31C140.88 145.54 140.37 145.65 139.77 145.65C139.43 145.65 139.07 145.62 138.67 145.57V147.6C138.67 147.66 138.65 147.72 138.6 147.76C138.56 147.81 138.5 147.83 138.44 147.83H137.39C137.34 147.83 137.28 147.81 137.24 147.76C137.19 147.71 137.17 147.66 137.17 147.61V139.66C137.17 139.57 137.19 139.51 137.23 139.46C137.27 139.41 137.35 139.38 137.48 139.35C138.24 139.15 139.01 139.06 139.78 139.06C140.39 139.06 140.89 139.17 141.3 139.4C141.7 139.63 142.01 139.95 142.21 140.39C142.41 140.82 142.51 141.33 142.51 141.93V142.81L142.5 142.78ZM140.99 142.78V141.9C140.99 141.38 140.9 140.98 140.73 140.69C140.55 140.41 140.23 140.26 139.77 140.26C139.53 140.26 139.33 140.26 139.14 140.28C138.96 140.29 138.8 140.31 138.67 140.34V144.33C139.05 144.39 139.42 144.41 139.77 144.41C140.23 144.41 140.55 144.27 140.73 143.98C140.91 143.69 140.99 143.29 140.99 142.77V142.78Z" fill="#172934"/>
<path d="M151.94 145.31C151.94 145.38 151.92 145.43 151.88 145.48C151.84 145.53 151.79 145.55 151.73 145.55H150.65C150.58 145.55 150.53 145.53 150.49 145.48C150.45 145.43 150.43 145.38 150.43 145.31V141.21C150.43 140.84 150.37 140.59 150.25 140.47C150.13 140.35 149.92 140.29 149.63 140.29H149.36C149.05 140.29 148.85 140.36 148.75 140.51C148.65 140.66 148.6 140.89 148.6 141.21V145.31C148.6 145.38 148.58 145.43 148.54 145.48C148.5 145.53 148.45 145.55 148.39 145.55H147.3C147.24 145.55 147.18 145.53 147.14 145.48C147.1 145.43 147.08 145.38 147.08 145.31V141.21C147.08 140.89 147.03 140.66 146.94 140.51C146.84 140.36 146.64 140.29 146.33 140.29H146.05C145.76 140.29 145.56 140.35 145.43 140.48C145.31 140.6 145.25 140.85 145.25 141.22V145.32C145.25 145.39 145.23 145.44 145.19 145.49C145.15 145.54 145.1 145.56 145.04 145.56H143.96C143.9 145.56 143.85 145.54 143.8 145.49C143.76 145.44 143.74 145.39 143.74 145.32V141.22C143.74 140.51 143.94 139.97 144.35 139.6C144.75 139.23 145.32 139.04 146.05 139.04H146.33C146.99 139.04 147.49 139.19 147.83 139.5C148.18 139.2 148.69 139.04 149.35 139.04H149.62C150.1 139.04 150.52 139.12 150.86 139.29C151.21 139.46 151.47 139.7 151.65 140.03C151.83 140.35 151.92 140.75 151.92 141.23V145.33L151.94 145.31Z" fill="#172934"/>
<path d="M158.69 142.57C158.69 142.76 158.61 142.86 158.46 142.86H154.74V142.89C154.74 143.29 154.84 143.63 155.05 143.92C155.26 144.2 155.61 144.34 156.11 144.34C156.76 144.34 157.46 144.3 158.21 144.22H158.24C158.38 144.22 158.45 144.28 158.45 144.39V145.14C158.45 145.24 158.43 145.31 158.4 145.35C158.37 145.39 158.3 145.42 158.21 145.44C157.85 145.51 157.5 145.56 157.17 145.58C156.84 145.61 156.44 145.63 155.99 145.63C155.67 145.63 155.36 145.58 155.04 145.48C154.72 145.38 154.43 145.23 154.15 145.01C153.87 144.79 153.65 144.5 153.48 144.12C153.31 143.75 153.22 143.29 153.22 142.76V141.92C153.22 141.02 153.46 140.32 153.94 139.8C154.42 139.28 155.1 139.02 155.96 139.02C156.53 139.02 157.02 139.14 157.43 139.39C157.84 139.64 158.15 139.98 158.36 140.41C158.57 140.85 158.67 141.35 158.67 141.92V142.55L158.69 142.57ZM157.18 141.78V141.74C157.18 141.45 157.13 141.2 157.03 140.99C156.93 140.78 156.79 140.61 156.61 140.5C156.43 140.39 156.23 140.33 155.99 140.33C155.63 140.33 155.33 140.45 155.11 140.7C154.89 140.95 154.77 141.29 154.77 141.73V141.77H157.19L157.18 141.78Z" fill="#172934"/>
<path d="M165.2 145.31C165.2 145.38 165.18 145.43 165.14 145.48C165.1 145.53 165.05 145.55 164.98 145.55H163.91C163.85 145.55 163.8 145.53 163.76 145.48C163.72 145.43 163.7 145.38 163.7 145.31V141.36C163.7 141.03 163.65 140.77 163.53 140.57C163.43 140.38 163.22 140.29 162.91 140.29H162.2C161.9 140.29 161.7 140.39 161.59 140.57C161.48 140.76 161.43 141.03 161.43 141.36V145.31C161.43 145.38 161.41 145.43 161.37 145.48C161.33 145.53 161.28 145.55 161.22 145.55H160.15C160.09 145.55 160.03 145.53 159.99 145.48C159.95 145.43 159.93 145.38 159.93 145.31V141.36C159.93 140.65 160.13 140.09 160.52 139.67C160.91 139.25 161.48 139.04 162.21 139.04H162.92C163.4 139.04 163.82 139.14 164.17 139.33C164.51 139.52 164.77 139.79 164.94 140.14C165.12 140.49 165.21 140.9 165.21 141.36V145.31H165.2Z" fill="#172934"/>
<path d="M169.93 145.35C169.93 145.47 169.86 145.53 169.71 145.56C169.57 145.58 169.37 145.6 169.11 145.62C168.85 145.64 168.6 145.65 168.37 145.65C168.07 145.65 167.81 145.62 167.6 145.56C167.38 145.5 167.19 145.41 167.04 145.28C166.89 145.15 166.78 144.98 166.69 144.75C166.6 144.52 166.57 144.25 166.57 143.94V138.19C166.57 138.06 166.64 137.98 166.8 137.96L167.86 137.78H167.9C167.9 137.78 168 137.8 168.04 137.85C168.08 137.9 168.1 137.95 168.1 138.01V139.13H169.71C169.78 139.13 169.83 139.15 169.88 139.19C169.92 139.23 169.94 139.29 169.94 139.36V140.04C169.94 140.1 169.91 140.16 169.87 140.2C169.83 140.24 169.77 140.26 169.71 140.26H168.1V143.95C168.1 144.17 168.15 144.31 168.26 144.38C168.36 144.45 168.54 144.48 168.8 144.48H169.7C169.86 144.48 169.94 144.54 169.94 144.65V145.36L169.93 145.35Z" fill="#172934"/>
<path d="M175.51 145.32C175.51 145.39 175.49 145.44 175.44 145.49C175.4 145.53 175.34 145.55 175.28 145.55H174.15C174.08 145.55 174.03 145.53 173.99 145.48C173.95 145.43 173.92 145.38 173.92 145.32V137.28C173.92 137.22 173.94 137.17 173.98 137.13C174.02 137.09 174.08 137.07 174.15 137.07H175.28C175.34 137.07 175.4 137.09 175.44 137.13C175.49 137.17 175.51 137.22 175.51 137.29V145.33V145.32Z" fill="#172934"/>
<path d="M182.33 145.31C182.33 145.38 182.31 145.43 182.27 145.48C182.23 145.53 182.18 145.55 182.12 145.55H181.05C180.99 145.55 180.94 145.53 180.9 145.48C180.86 145.43 180.84 145.38 180.84 145.31V141.36C180.84 141.03 180.78 140.77 180.68 140.57C180.57 140.38 180.36 140.29 180.06 140.29H179.35C179.05 140.29 178.84 140.39 178.74 140.57C178.63 140.76 178.58 141.03 178.58 141.36V145.31C178.58 145.38 178.56 145.43 178.52 145.48C178.48 145.53 178.43 145.55 178.36 145.55H177.29C177.23 145.55 177.17 145.53 177.13 145.48C177.09 145.43 177.07 145.38 177.07 145.31V141.36C177.07 140.65 177.27 140.09 177.66 139.67C178.06 139.25 178.62 139.04 179.35 139.04H180.06C180.54 139.04 180.96 139.14 181.3 139.33C181.65 139.52 181.9 139.79 182.08 140.14C182.26 140.49 182.34 140.9 182.34 141.36V145.31H182.33Z" fill="#172934"/>
<path d="M188.08 143.86C188.08 144.2 187.99 144.5 187.83 144.77C187.66 145.04 187.41 145.25 187.07 145.41C186.73 145.57 186.32 145.65 185.85 145.65C185.59 145.65 185.27 145.63 184.87 145.6C184.47 145.56 184.12 145.5 183.8 145.42C183.65 145.38 183.58 145.3 183.58 145.16V144.48C183.58 144.48 183.6 144.39 183.64 144.36C183.68 144.32 183.73 144.31 183.78 144.31H183.81C184.49 144.39 185.13 144.43 185.73 144.43C186.05 144.43 186.26 144.38 186.37 144.29C186.49 144.19 186.54 144.06 186.54 143.88C186.54 143.77 186.5 143.67 186.42 143.59C186.34 143.5 186.22 143.41 186.04 143.3L184.48 142.34C184.18 142.16 183.95 141.93 183.78 141.66C183.61 141.39 183.52 141.09 183.52 140.77C183.52 139.63 184.25 139.06 185.69 139.06C186.14 139.06 186.51 139.08 186.8 139.12C187.09 139.16 187.4 139.22 187.73 139.29C187.87 139.32 187.94 139.41 187.94 139.55V140.21C187.94 140.36 187.87 140.43 187.75 140.43H187.72C187.07 140.34 186.44 140.3 185.83 140.3C185.55 140.3 185.35 140.34 185.23 140.41C185.11 140.48 185.04 140.61 185.04 140.78C185.04 140.86 185.07 140.93 185.13 140.99C185.19 141.04 185.31 141.13 185.5 141.25L187 142.17C187.31 142.35 187.54 142.54 187.7 142.73C187.86 142.92 187.96 143.11 188.01 143.3C188.06 143.49 188.09 143.69 188.09 143.9L188.08 143.86Z" fill="#172934"/>
<path d="M192.63 145.35C192.63 145.47 192.56 145.53 192.41 145.56C192.27 145.58 192.08 145.6 191.81 145.62C191.55 145.64 191.3 145.65 191.07 145.65C190.77 145.65 190.51 145.62 190.3 145.56C190.08 145.5 189.9 145.41 189.75 145.28C189.6 145.15 189.48 144.98 189.4 144.75C189.32 144.52 189.27 144.25 189.27 143.94V138.19C189.27 138.06 189.35 137.98 189.5 137.96L190.56 137.78H190.6C190.6 137.78 190.7 137.8 190.73 137.85C190.77 137.9 190.79 137.95 190.79 138.01V139.13H192.41C192.48 139.13 192.53 139.15 192.58 139.19C192.62 139.23 192.64 139.29 192.64 139.36V140.04C192.64 140.1 192.62 140.16 192.57 140.2C192.53 140.24 192.47 140.26 192.41 140.26H190.79V143.95C190.79 144.17 190.84 144.31 190.95 144.38C191.05 144.45 191.24 144.48 191.49 144.48H192.39C192.55 144.48 192.63 144.54 192.63 144.65V145.36V145.35Z" fill="#172934"/>
<path d="M198.77 145.04C198.77 145.13 198.75 145.2 198.71 145.23C198.67 145.27 198.59 145.31 198.46 145.34C198.08 145.44 197.69 145.51 197.3 145.56C196.91 145.61 196.53 145.64 196.17 145.64C195.27 145.64 194.59 145.39 194.13 144.89C193.67 144.39 193.44 143.69 193.44 142.78V141.9C193.44 141.31 193.54 140.8 193.74 140.36C193.94 139.93 194.24 139.6 194.65 139.37C195.06 139.14 195.56 139.03 196.17 139.03C196.42 139.03 196.67 139.04 196.93 139.07C197.19 139.09 197.46 139.13 197.74 139.18C198.01 139.23 198.25 139.28 198.46 139.33C198.59 139.37 198.67 139.4 198.71 139.44C198.75 139.48 198.77 139.55 198.77 139.64V145.04ZM197.26 144.33V140.34C197.13 140.31 196.98 140.3 196.8 140.28C196.62 140.27 196.41 140.26 196.17 140.26C195.71 140.26 195.39 140.4 195.21 140.69C195.03 140.98 194.95 141.38 194.95 141.9V142.78C194.95 143.3 195.04 143.7 195.22 143.99C195.4 144.28 195.72 144.42 196.18 144.42C196.64 144.42 197.02 144.4 197.27 144.34L197.26 144.33Z" fill="#172934"/>
<path d="M201.82 145.31C201.82 145.38 201.8 145.43 201.76 145.48C201.72 145.53 201.67 145.55 201.6 145.55H200.54C200.48 145.55 200.43 145.53 200.38 145.48C200.33 145.43 200.31 145.37 200.31 145.31V137.09C200.31 137.04 200.33 136.98 200.38 136.93C200.43 136.88 200.48 136.86 200.54 136.86H201.6C201.66 136.86 201.71 136.88 201.75 136.93C201.8 136.97 201.82 137.03 201.82 137.09V145.31Z" fill="#172934"/>
<path d="M204.92 145.31C204.92 145.38 204.9 145.43 204.86 145.48C204.82 145.53 204.77 145.55 204.71 145.55H203.65C203.59 145.55 203.54 145.53 203.49 145.48C203.44 145.43 203.42 145.37 203.42 145.31V137.09C203.42 137.04 203.44 136.98 203.49 136.93C203.54 136.88 203.59 136.86 203.65 136.86H204.71C204.77 136.86 204.82 136.88 204.86 136.93C204.9 136.97 204.92 137.03 204.92 137.09V145.31Z" fill="#172934"/>
<path d="M211.57 145.04C211.57 145.13 211.55 145.2 211.51 145.23C211.47 145.27 211.38 145.31 211.25 145.34C210.87 145.44 210.48 145.51 210.09 145.56C209.7 145.61 209.32 145.64 208.96 145.64C208.07 145.64 207.38 145.39 206.92 144.89C206.46 144.39 206.23 143.69 206.23 142.78V141.9C206.23 141.31 206.34 140.8 206.53 140.36C206.74 139.93 207.04 139.6 207.44 139.37C207.85 139.14 208.35 139.03 208.96 139.03C209.21 139.03 209.46 139.04 209.72 139.07C209.98 139.09 210.25 139.13 210.53 139.18C210.81 139.23 211.04 139.28 211.25 139.33C211.38 139.37 211.47 139.4 211.51 139.44C211.55 139.48 211.57 139.55 211.57 139.64V145.04ZM210.06 144.33V140.34C209.93 140.31 209.78 140.3 209.59 140.28C209.41 140.27 209.2 140.26 208.96 140.26C208.5 140.26 208.18 140.4 208 140.69C207.82 140.98 207.73 141.38 207.73 141.9V142.78C207.73 143.3 207.82 143.7 208 143.99C208.18 144.28 208.5 144.42 208.96 144.42C209.42 144.42 209.8 144.4 210.06 144.34V144.33Z" fill="#172934"/>
<path d="M216.35 145.35C216.35 145.47 216.28 145.53 216.13 145.56C215.99 145.58 215.79 145.6 215.52 145.62C215.26 145.64 215.01 145.65 214.79 145.65C214.49 145.65 214.24 145.62 214.02 145.56C213.81 145.5 213.62 145.41 213.46 145.28C213.31 145.15 213.2 144.98 213.11 144.75C213.03 144.52 212.99 144.25 212.99 143.94V138.19C212.99 138.06 213.07 137.98 213.22 137.96L214.28 137.78H214.31C214.36 137.78 214.41 137.8 214.45 137.85C214.49 137.9 214.51 137.95 214.51 138.01V139.13H216.12C216.19 139.13 216.24 139.15 216.29 139.19C216.33 139.23 216.35 139.29 216.35 139.36V140.04C216.35 140.1 216.33 140.16 216.28 140.2C216.23 140.24 216.18 140.26 216.12 140.26H214.51V143.95C214.51 144.17 214.56 144.31 214.66 144.38C214.76 144.45 214.95 144.48 215.2 144.48H216.1C216.26 144.48 216.34 144.54 216.34 144.65V145.36L216.35 145.35Z" fill="#172934"/>
<path d="M218.96 138.03C218.96 138.09 218.93 138.15 218.89 138.19C218.84 138.24 218.79 138.26 218.73 138.26H217.62C217.56 138.26 217.5 138.24 217.45 138.2C217.4 138.16 217.37 138.1 217.37 138.04V137.03C217.37 136.97 217.4 136.92 217.45 136.87C217.5 136.82 217.56 136.8 217.62 136.8H218.73C218.79 136.8 218.84 136.82 218.89 136.87C218.94 136.91 218.96 136.97 218.96 137.02V138.03ZM218.93 145.32C218.93 145.38 218.9 145.44 218.86 145.49C218.81 145.54 218.76 145.56 218.7 145.56H217.64C217.58 145.56 217.53 145.54 217.48 145.49C217.43 145.44 217.41 145.38 217.41 145.32V139.35C217.41 139.29 217.43 139.23 217.48 139.19C217.53 139.14 217.58 139.12 217.64 139.12H218.7C218.76 139.12 218.82 139.14 218.86 139.19C218.9 139.23 218.93 139.29 218.93 139.35V145.32Z" fill="#172934"/>
<path d="M225.7 142.8C225.7 143.34 225.59 143.83 225.38 144.26C225.17 144.7 224.86 145.04 224.45 145.28C224.04 145.52 223.55 145.64 222.97 145.64C222.39 145.64 221.89 145.52 221.48 145.28C221.07 145.04 220.76 144.7 220.55 144.26C220.34 143.83 220.24 143.34 220.24 142.8V141.88C220.24 141.34 220.34 140.85 220.55 140.41C220.76 139.98 221.07 139.64 221.48 139.4C221.89 139.16 222.39 139.04 222.97 139.04C223.55 139.04 224.04 139.16 224.45 139.4C224.87 139.64 225.18 139.98 225.38 140.41C225.59 140.84 225.7 141.34 225.7 141.88V142.8ZM224.19 142.8V141.88C224.19 141.4 224.08 141.03 223.87 140.75C223.66 140.47 223.36 140.33 222.96 140.33C222.56 140.33 222.26 140.47 222.05 140.75C221.84 141.03 221.74 141.4 221.74 141.88V142.8C221.74 143.27 221.85 143.65 222.06 143.93C222.27 144.21 222.57 144.35 222.96 144.35C223.35 144.35 223.65 144.21 223.86 143.94C224.07 143.66 224.18 143.29 224.18 142.81L224.19 142.8Z" fill="#172934"/>
<path d="M232.21 145.31C232.21 145.38 232.19 145.43 232.15 145.48C232.1 145.53 232.06 145.55 231.99 145.55H230.92C230.86 145.55 230.8 145.53 230.77 145.48C230.72 145.43 230.71 145.38 230.71 145.31V141.36C230.71 141.03 230.66 140.77 230.55 140.57C230.44 140.38 230.24 140.29 229.93 140.29H229.22C228.92 140.29 228.71 140.39 228.6 140.57C228.5 140.76 228.44 141.03 228.44 141.36V145.31C228.44 145.38 228.41 145.43 228.38 145.48C228.34 145.53 228.29 145.55 228.22 145.55H227.15C227.09 145.55 227.03 145.53 226.99 145.48C226.95 145.43 226.92 145.38 226.92 145.31V141.36C226.92 140.65 227.12 140.09 227.52 139.67C227.91 139.25 228.48 139.04 229.21 139.04H229.92C230.41 139.04 230.82 139.14 231.16 139.33C231.5 139.52 231.77 139.79 231.94 140.14C232.12 140.49 232.2 140.9 232.2 141.36V145.31H232.21Z" fill="#172934"/>
<path d="M241.42 145.25C241.42 145.33 241.41 145.38 241.37 145.42C241.34 145.46 241.28 145.48 241.19 145.49C241.02 145.53 240.72 145.57 240.3 145.6C239.88 145.63 239.53 145.65 239.25 145.65C238.71 145.65 238.24 145.58 237.86 145.46C237.48 145.33 237.18 145.1 236.95 144.75C236.72 144.41 236.61 143.93 236.61 143.32V137.31C236.61 137.25 236.63 137.2 236.68 137.15C236.72 137.1 236.78 137.08 236.84 137.08H237.97C238.04 137.08 238.09 137.1 238.13 137.15C238.17 137.19 238.2 137.25 238.2 137.31V143.32C238.2 143.69 238.26 143.95 238.4 144.09C238.53 144.23 238.76 144.3 239.09 144.3H241.19C241.25 144.3 241.31 144.32 241.35 144.37C241.4 144.41 241.42 144.47 241.42 144.53V145.26V145.25Z" fill="#172934"/>
<path d="M247.31 145.25C247.31 145.33 247.29 145.38 247.26 145.42C247.23 145.46 247.17 145.48 247.08 145.49C246.9 145.53 246.61 145.57 246.19 145.6C245.77 145.63 245.42 145.65 245.14 145.65C244.6 145.65 244.13 145.58 243.74 145.46C243.36 145.33 243.06 145.1 242.83 144.75C242.61 144.41 242.5 143.93 242.5 143.32V137.31C242.5 137.25 242.52 137.2 242.57 137.15C242.61 137.1 242.67 137.08 242.73 137.08H243.85C243.92 137.08 243.97 137.1 244.02 137.15C244.06 137.19 244.08 137.25 244.08 137.31V143.32C244.08 143.69 244.15 143.95 244.28 144.09C244.41 144.23 244.64 144.3 244.98 144.3H247.08C247.14 144.3 247.2 144.32 247.24 144.37C247.28 144.41 247.3 144.47 247.3 144.53V145.26L247.31 145.25Z" fill="#172934"/>
<path d="M253.23 145.2C253.23 145.32 253.14 145.4 252.98 145.46C252.85 145.49 252.61 145.53 252.26 145.57C251.91 145.61 251.55 145.64 251.17 145.64C250.79 145.64 250.43 145.58 250.05 145.48C249.68 145.37 249.33 145.19 249.01 144.93C248.69 144.67 248.43 144.31 248.24 143.85C248.04 143.39 247.94 142.82 247.94 142.15V140.47C247.94 139.79 248.04 139.22 248.23 138.76C248.43 138.29 248.68 137.93 249 137.68C249.32 137.42 249.67 137.24 250.04 137.14C250.41 137.04 250.79 136.98 251.17 136.98C251.43 136.98 251.69 136.99 251.96 137.02C252.23 137.04 252.46 137.07 252.64 137.1C252.82 137.13 252.94 137.15 252.98 137.17C253.15 137.22 253.23 137.31 253.23 137.43V138.19C253.23 138.35 253.15 138.43 253 138.43H252.98C252.27 138.37 251.67 138.34 251.2 138.34C250.68 138.34 250.28 138.5 249.98 138.83C249.69 139.16 249.54 139.71 249.54 140.47V142.15C249.54 143.58 250.09 144.29 251.2 144.29C251.63 144.29 252.22 144.26 252.98 144.2H253C253.15 144.2 253.23 144.28 253.23 144.44V145.21V145.2Z" fill="#172934"/>
<path d="M71.14 142.14H72.43V143.09C72.43 143.42 72.37 143.78 72.28 144.15L73.42 145.11L72.71 145.98L71.76 145.18C71.41 145.75 70.6 146.03 69.32 146.03C67.9 146.03 66.98 145.87 66.54 145.54C66.1 145.21 65.88 144.53 65.88 143.47C65.88 142.28 66.38 141.61 67.39 141.47C66.96 141.09 66.74 140.61 66.74 140.04C66.74 139.31 66.92 138.8 67.28 138.52C67.64 138.24 68.29 138.1 69.22 138.1C70.21 138.1 70.88 138.24 71.23 138.53C71.59 138.82 71.77 139.35 71.77 140.14V140.55H70.43V140.32C70.43 139.84 70.37 139.54 70.24 139.42C70.11 139.3 69.79 139.24 69.29 139.24C68.54 139.24 68.17 139.52 68.17 140.07C68.17 140.45 68.36 140.8 68.75 141.13L71.16 143.2C71.2 143 71.22 142.81 71.22 142.64C71.22 142.5 71.2 142.33 71.16 142.15L71.14 142.14ZM68.17 142.17C67.59 142.26 67.3 142.69 67.3 143.48C67.3 144.09 67.4 144.48 67.59 144.65C67.79 144.82 68.25 144.9 68.97 144.9C69.59 144.9 70 144.87 70.18 144.82C70.36 144.76 70.56 144.61 70.77 144.35L68.17 142.18V142.17Z" fill="#172934"/>
</g>
<defs>
<clipPath id="clip0_712_1714">
<rect width="253.66" height="147.84" fill="white"/>
</clipPath>
</defs>
</svg>
