<svg width="29" height="29" viewBox="0 0 29 29" fill="none" xmlns="http://www.w3.org/2000/svg">
    <path
        d="M9.89053 0.0199004L10.074 0.0199004C16.3384 0.019901 19.3577 2.48899 19.8798 8.01976C19.9362 8.59823 19.5129 9.12026 18.9204 9.1767C18.356 9.23314 17.8198 8.79576 17.7634 8.21728C17.3542 3.78703 15.2661 2.13626 10.0598 2.13626L9.87643 2.13626C4.13403 2.13626 2.10232 4.16797 2.10232 9.91037L2.10232 19.1095C2.10232 24.8519 4.13402 26.8836 9.87642 26.8836L10.0598 26.8836C15.2943 26.8836 17.3825 25.2047 17.7634 20.6897C17.834 20.1113 18.3278 19.6739 18.9203 19.7303C19.5129 19.7727 19.9362 20.2947 19.8939 20.8732C19.4142 26.4886 16.3807 29 10.0739 29L9.89053 29C2.96297 29 6.12942e-05 26.0371 6.18998e-05 19.1095L6.2704e-05 9.91037C6.33097e-05 2.98281 2.96297 0.0198998 9.89053 0.0199004Z"
        fill="white" />
    <path
        d="M10.2311 13.451L26.2872 13.451C26.8657 13.451 27.3454 13.9307 27.3454 14.5092C27.3454 15.0877 26.8657 15.5674 26.2872 15.5674L10.2311 15.5674C9.65266 15.5674 9.17295 15.0877 9.17295 14.5092C9.17295 13.9307 9.65266 13.451 10.2311 13.451Z"
        fill="white" />
    <path
        d="M23.1404 8.72508C23.4085 8.72508 23.6766 8.82384 23.8882 9.03548L28.6148 13.762C29.0239 14.1712 29.0239 14.8484 28.6148 15.2576L23.8882 19.9841C23.4791 20.3933 22.8018 20.3933 22.3927 19.9841C21.9835 19.575 21.9835 18.8977 22.3927 18.4886L26.3714 14.5098L22.3927 10.531C21.9835 10.1219 21.9835 9.44464 22.3927 9.03548C22.5902 8.82384 22.8724 8.72508 23.1404 8.72508Z"
        fill="white" />
</svg>