<svg width="32" height="30" viewBox="0 0 32 30" fill="none" xmlns="http://www.w3.org/2000/svg">
<path d="M8.33978 25.0873V24.5873H7.83978C5.60147 24.5873 3.77507 23.8434 2.50949 22.5778C1.24392 21.3123 0.5 19.4858 0.5 17.2475V7.83978C0.5 5.60147 1.24392 3.77507 2.50949 2.50949C3.77507 1.24392 5.60147 0.5 7.83978 0.5H23.5193C25.7577 0.5 27.5841 1.24392 28.8496 2.50949C30.1152 3.77507 30.8591 5.60147 30.8591 7.83978V17.2475C30.8591 19.4858 30.1152 21.3123 28.8496 22.5778C27.5841 23.8434 25.7577 24.5873 23.5193 24.5873H17.2475H17.0964L16.9706 24.671L9.9932 29.3122L9.99318 29.3121L9.98845 29.3154C9.29318 29.7894 8.33978 29.2891 8.33978 28.4271V25.0873ZM17.9325 12.9911L17.9356 12.989L17.9457 12.9822C18.4434 12.6451 19.9583 11.6191 19.9583 9.56453C19.9583 7.20301 18.0411 5.28576 15.6796 5.28576C13.318 5.28576 11.4008 7.20301 11.4008 9.56453C11.4008 10.4835 12.1578 11.2405 13.0768 11.2405C13.9958 11.2405 14.7527 10.4835 14.7527 9.56453C14.7527 9.0567 15.1717 8.63769 15.6796 8.63769C16.1874 8.63769 16.6064 9.0567 16.6064 9.56453C16.6064 9.67674 16.585 9.74033 16.5336 9.812C16.4667 9.90516 16.3343 10.0299 16.0582 10.2164L16.0582 10.2164L16.0548 10.2187C16.0458 10.225 16.0363 10.2315 16.0265 10.2382C15.5009 10.5988 14.0036 11.626 14.0036 13.6883V14.0175C14.0036 14.9366 14.7606 15.6935 15.6796 15.6935C16.5986 15.6935 17.3555 14.9366 17.3555 14.0175V13.6883C17.3555 13.5539 17.3802 13.4841 17.4326 13.4109C17.5016 13.3145 17.6391 13.1867 17.9325 12.9911ZM14.0036 17.9061C14.0036 18.8207 14.7405 19.582 15.6796 19.582C16.6186 19.582 17.3555 18.8207 17.3555 17.9061C17.3555 16.9914 16.6186 16.2301 15.6796 16.2301C14.7405 16.2301 14.0036 16.9914 14.0036 17.9061Z" fill="white" stroke="#B42E34"/>
</svg>
