<svg width="40" height="40" viewBox="0 0 40 40" fill="none" xmlns="http://www.w3.org/2000/svg">
<rect width="40" height="40" rx="20" fill="#797979"/>
<path d="M24.5417 28.9587C23.6 28.9587 22.6084 28.7337 21.5834 28.3003C20.5834 27.8753 19.575 27.292 18.5917 26.5837C17.6167 25.867 16.675 25.067 15.7834 24.192C14.9 23.3003 14.1 22.3587 13.3917 21.392C12.675 20.392 12.1 19.392 11.6917 18.4253C11.2584 17.392 11.0417 16.392 11.0417 15.4503C11.0417 14.8003 11.1584 14.1837 11.3834 13.6087C11.6167 13.017 11.9917 12.467 12.5 11.992C13.1417 11.3587 13.875 11.042 14.6584 11.042C14.9834 11.042 15.3167 11.117 15.6 11.2503C15.925 11.4003 16.2 11.6253 16.4 11.9253L18.3334 14.6503C18.5084 14.892 18.6417 15.1253 18.7334 15.3587C18.8417 15.6087 18.9 15.8587 18.9 16.1003C18.9 16.417 18.8084 16.7253 18.6334 17.017C18.5084 17.242 18.3167 17.4837 18.075 17.7253L17.5084 18.317C17.5167 18.342 17.525 18.3587 17.5334 18.3753C17.6334 18.5503 17.8334 18.8503 18.2167 19.3003C18.625 19.767 19.0084 20.192 19.3917 20.5837C19.8834 21.067 20.2917 21.4503 20.675 21.767C21.15 22.167 21.4584 22.367 21.6417 22.4587L21.625 22.5003L22.2334 21.9003C22.4917 21.642 22.7417 21.4503 22.9834 21.3253C23.4417 21.042 24.025 20.992 24.6084 21.2337C24.825 21.3253 25.0584 21.4503 25.3084 21.6253L28.075 23.592C28.3834 23.8003 28.6084 24.067 28.7417 24.3837C28.8667 24.7003 28.925 24.992 28.925 25.2837C28.925 25.6837 28.8334 26.0837 28.6584 26.4587C28.4834 26.8337 28.2667 27.1587 27.9917 27.4587C27.5167 27.9837 27 28.3587 26.4 28.6003C25.825 28.8337 25.2 28.9587 24.5417 28.9587ZM14.6584 12.292C14.2 12.292 13.775 12.492 13.3667 12.892C12.9834 13.2503 12.7167 13.642 12.55 14.067C12.375 14.5003 12.2917 14.9587 12.2917 15.4503C12.2917 16.2253 12.475 17.067 12.8417 17.9337C13.2167 18.817 13.7417 19.7337 14.4084 20.6503C15.075 21.567 15.8334 22.4587 16.6667 23.3003C17.5 24.1253 18.4 24.892 19.325 25.567C20.225 26.2253 21.15 26.7587 22.0667 27.142C23.4917 27.7503 24.825 27.892 25.925 27.4337C26.35 27.2587 26.725 26.992 27.0667 26.6087C27.2584 26.4003 27.4084 26.1753 27.5334 25.9087C27.6334 25.7003 27.6834 25.4837 27.6834 25.267C27.6834 25.1337 27.6584 25.0003 27.5917 24.8503C27.5667 24.8003 27.5167 24.7087 27.3584 24.6003L24.5917 22.6337C24.425 22.517 24.275 22.4337 24.1334 22.3753C23.95 22.3003 23.875 22.2253 23.5917 22.4003C23.425 22.4837 23.275 22.6087 23.1084 22.7753L22.475 23.4003C22.15 23.717 21.65 23.792 21.2667 23.6503L21.0417 23.5503C20.7 23.367 20.3 23.0837 19.8584 22.7087C19.4584 22.367 19.025 21.967 18.5 21.4503C18.0917 21.0337 17.6834 20.592 17.2584 20.1003C16.8667 19.642 16.5834 19.2503 16.4084 18.9253L16.3084 18.6753C16.2584 18.4837 16.2417 18.3753 16.2417 18.2587C16.2417 17.9587 16.35 17.692 16.5584 17.4837L17.1834 16.8337C17.35 16.667 17.475 16.5087 17.5584 16.367C17.625 16.2587 17.65 16.167 17.65 16.0837C17.65 16.017 17.625 15.917 17.5834 15.817C17.525 15.6837 17.4334 15.5337 17.3167 15.3753L15.3834 12.642C15.3 12.5253 15.2 12.442 15.075 12.3837C14.9417 12.3253 14.8 12.292 14.6584 12.292ZM21.625 22.5087L21.4917 23.0753L21.7167 22.492C21.675 22.4837 21.6417 22.492 21.625 22.5087Z" fill="white"/>
<path d="M25.4167 18.1247C25.075 18.1247 24.7917 17.8413 24.7917 17.4997C24.7917 17.1997 24.4917 16.5747 23.9917 16.0413C23.5 15.5163 22.9583 15.208 22.5 15.208C22.1583 15.208 21.875 14.9247 21.875 14.583C21.875 14.2413 22.1583 13.958 22.5 13.958C23.3083 13.958 24.1583 14.3913 24.9 15.183C25.5917 15.9247 26.0417 16.833 26.0417 17.4997C26.0417 17.8413 25.7583 18.1247 25.4167 18.1247Z" fill="white"/>
<path d="M28.3333 18.1253C27.9917 18.1253 27.7083 17.842 27.7083 17.5003C27.7083 14.6253 25.375 12.292 22.5 12.292C22.1583 12.292 21.875 12.0087 21.875 11.667C21.875 11.3253 22.1583 11.042 22.5 11.042C26.0583 11.042 28.9583 13.942 28.9583 17.5003C28.9583 17.842 28.675 18.1253 28.3333 18.1253Z" fill="white"/>
</svg>
