<svg width="29" height="25" viewBox="0 0 29 25" fill="none" xmlns="http://www.w3.org/2000/svg">
<path d="M18.3547 7.91519C18.6497 8.41898 18.8241 8.99147 18.8241 9.59831C18.8107 11.625 16.9465 13.2852 14.5862 13.3424C14.4923 13.331 14.3716 13.331 14.2643 13.3424C11.904 13.2737 10.0264 11.625 10.0264 9.59831C10.0264 7.5259 11.9844 5.84277 14.4252 5.84277" stroke="white" stroke-width="2" stroke-linecap="round" stroke-linejoin="round"/>
<path d="M23.4497 20.8998C21.0626 22.7661 17.8976 23.8996 14.4107 23.8996C10.9238 23.8996 7.75875 22.7661 5.37158 20.8998C5.50569 19.8235 6.31036 18.7701 7.74534 17.9457C11.42 15.8618 17.4282 15.8618 21.076 17.9457C22.511 18.7701 23.3156 19.8235 23.4497 20.8998Z" stroke="white" stroke-width="2" stroke-linecap="round" stroke-linejoin="round"/>
<path d="M3.68221 5.57993C2.00583 7.49205 1 9.87361 1 12.4498C1 18.7701 7.00815 23.8996 14.4111 23.8996C21.814 23.8996 27.8221 18.7701 27.8221 12.4498C27.8221 6.12952 21.814 1 14.4111 1C12.4933 1 10.656 1.34349 9.0064 1.97323" stroke="white" stroke-width="2" stroke-linecap="round" stroke-linejoin="round"/>
</svg>
