<svg width="23" height="27" viewBox="0 0 23 27" fill="none" xmlns="http://www.w3.org/2000/svg">
<path d="M9.64421 1.72332L3.55174 4.01866C2.14767 4.54366 1 6.20412 1 7.69366V16.7652C1 18.2059 1.95232 20.0983 3.11221 20.9652L8.3622 24.8844C10.0837 26.1786 12.9163 26.1786 14.6378 24.8844L19.8878 20.9652C21.0477 20.0983 22 18.2059 22 16.7652V7.69366C22 6.19192 20.8523 4.53145 19.4483 4.00645L13.3558 1.72332C12.318 1.34483 10.6576 1.34483 9.64421 1.72332Z" stroke="white" stroke-width="2" stroke-linecap="round" stroke-linejoin="round"/>
<path d="M11.4878 14.2616C12.8364 14.2616 13.9296 13.1684 13.9296 11.8198C13.9296 10.4712 12.8364 9.37793 11.4878 9.37793C10.1391 9.37793 9.0459 10.4712 9.0459 11.8198C9.0459 13.1684 10.1391 14.2616 11.4878 14.2616Z" stroke="white" stroke-width="2" stroke-miterlimit="10" stroke-linecap="round" stroke-linejoin="round"/>
<path d="M11.4878 14.2617V17.9245" stroke="white" stroke-width="2" stroke-miterlimit="10" stroke-linecap="round" stroke-linejoin="round"/>
</svg>
