<svg width="33" height="36" viewBox="0 0 33 36" fill="none" xmlns="http://www.w3.org/2000/svg">
<path d="M15.3418 18.8901C10.1347 18.8901 5.89673 14.6522 5.89673 9.44507C5.89673 4.23796 10.1347 0 15.3418 0C20.5489 0 24.7869 4.23796 24.7869 9.44507C24.7869 14.6522 20.5489 18.8901 15.3418 18.8901ZM15.3418 2.46393C11.4981 2.46393 8.36066 5.60134 8.36066 9.44507C8.36066 13.2888 11.4981 16.4262 15.3418 16.4262C19.1855 16.4262 22.3229 13.2888 22.3229 9.44507C22.3229 5.60134 19.1855 2.46393 15.3418 2.46393Z" fill="#292D32"/>
<path d="M1.23197 35.3168C0.558491 35.3168 0 34.7583 0 34.0848C0 27.0708 6.88257 21.3545 15.3422 21.3545C17.0012 21.3545 18.6272 21.568 20.2041 22.0115C20.8612 22.1922 21.2392 22.8657 21.0585 23.5228C20.8778 24.1798 20.2041 24.5576 19.5473 24.3769C18.2003 23.9991 16.7877 23.8184 15.3422 23.8184C8.24594 23.8184 2.46393 28.4178 2.46393 34.0848C2.46393 34.7583 1.90544 35.3168 1.23197 35.3168Z" fill="#292D32"/>
<path d="M25.1975 35.3168C23.2592 35.3168 21.4194 34.5941 19.9904 33.2964C19.4154 32.8036 18.9062 32.1958 18.512 31.5224C17.7892 30.3397 17.395 28.9434 17.395 27.5144C17.395 25.4611 18.1835 23.5392 19.5961 22.0773C21.0745 20.5497 23.0621 19.7119 25.1975 19.7119C27.4314 19.7119 29.5504 20.6646 30.9959 22.3073C32.2772 23.7363 32.9999 25.5761 32.9999 27.5144C32.9999 28.1386 32.9178 28.7628 32.7535 29.3541C32.5893 30.0933 32.2772 30.8653 31.8501 31.5388C30.4867 33.8713 27.9242 35.3168 25.1975 35.3168ZM25.1975 22.1758C23.7355 22.1758 22.3886 22.7508 21.3702 23.7856C20.401 24.7876 19.859 26.1017 19.859 27.5144C19.859 28.4835 20.1218 29.4362 20.631 30.2575C20.8938 30.7175 21.2388 31.1281 21.633 31.4731C22.6186 32.3765 23.8834 32.8693 25.1975 32.8693C27.0536 32.8693 28.8112 31.8837 29.764 30.2904C30.0432 29.8305 30.2567 29.3048 30.3717 28.7956C30.4867 28.3685 30.536 27.9579 30.536 27.5308C30.536 26.2167 30.0432 24.9519 29.1562 23.9663C28.1706 22.8165 26.7251 22.1758 25.1975 22.1758Z" fill="#292D32"/>
<path d="M27.6612 28.7139H22.7498C22.0763 28.7139 21.5178 28.1554 21.5178 27.482C21.5178 26.8085 22.0763 26.25 22.7498 26.25H27.6612C28.3347 26.25 28.8932 26.8085 28.8932 27.482C28.8932 28.1554 28.3347 28.7139 27.6612 28.7139Z" fill="#292D32"/>
<path d="M25.1975 31.226C24.5241 31.226 23.9656 30.6675 23.9656 29.994V25.0826C23.9656 24.4091 24.5241 23.8506 25.1975 23.8506C25.871 23.8506 26.4295 24.4091 26.4295 25.0826V29.994C26.4295 30.6839 25.871 31.226 25.1975 31.226Z" fill="#292D32"/>
</svg>
