<svg width="23" height="24" viewBox="0 0 23 24" fill="none" xmlns="http://www.w3.org/2000/svg">
<path d="M8.38032 10.7854C8.27203 10.7745 8.14208 10.7745 8.02295 10.7854C5.44556 10.6987 3.3988 8.58699 3.3988 5.98794C3.3988 3.33474 5.54302 1.17969 8.20705 1.17969C10.8603 1.17969 13.0153 3.33474 13.0153 5.98794C13.0045 8.58699 10.9578 10.6987 8.38032 10.7854Z" stroke="white" stroke-width="2" stroke-linecap="round" stroke-linejoin="round"/>
<path d="M16.2316 3.3457C18.3325 3.3457 20.0219 5.04592 20.0219 7.13599C20.0219 9.18274 18.3975 10.8505 16.3724 10.9263C16.2857 10.9154 16.1883 10.9154 16.0908 10.9263" stroke="white" stroke-width="2" stroke-linecap="round" stroke-linejoin="round"/>
<path d="M2.96553 14.7813C0.344822 16.5356 0.344822 19.3946 2.96553 21.1381C5.94362 23.1307 10.8277 23.1307 13.8058 21.1381C16.4265 19.3837 16.4265 16.5248 13.8058 14.7813C10.8385 12.7995 5.95445 12.7995 2.96553 14.7813Z" stroke="white" stroke-width="2" stroke-linecap="round" stroke-linejoin="round"/>
<path d="M18.3218 20.6724C19.1015 20.51 19.8379 20.1959 20.4443 19.7303C22.1337 18.4632 22.1337 16.3732 20.4443 15.1061C19.8487 14.6513 19.1232 14.3481 18.3543 14.1748" stroke="white" stroke-width="2" stroke-linecap="round" stroke-linejoin="round"/>
</svg>
