<svg width="40" height="40" viewBox="0 0 40 40" fill="none" xmlns="http://www.w3.org/2000/svg">
<rect width="40" height="40" rx="20" fill="#797979"/>
<path d="M11.6667 28.9582C11.5 28.9582 11.3416 28.8915 11.225 28.7749C11.0666 28.6165 11 28.3832 11.0583 28.1665L12.1084 24.2415C11.4084 22.9415 11.0417 21.4749 11.0417 19.9915C11.0417 15.0499 15.0583 11.0332 20 11.0332C24.9417 11.0332 28.9583 15.0499 28.9583 19.9915C28.9583 24.9332 24.9417 28.9499 20 28.9499C18.4917 28.9499 17.0167 28.5749 15.7 27.8582L11.8333 28.9332C11.775 28.9499 11.725 28.9582 11.6667 28.9582ZM15.7833 26.5665C15.8917 26.5665 16 26.5999 16.1 26.6499C17.275 27.3416 18.625 27.7082 20 27.7082C24.25 27.7082 27.7083 24.2499 27.7083 19.9999C27.7083 15.7499 24.25 12.2915 20 12.2915C15.75 12.2915 12.2917 15.7499 12.2917 19.9999C12.2917 21.3582 12.65 22.6832 13.325 23.8499C13.4083 23.9915 13.4333 24.1665 13.3917 24.3249L12.5583 27.4415L15.625 26.5915C15.675 26.5749 15.7333 26.5665 15.7833 26.5665Z" fill="white"/>
<path d="M22.2833 24.7999C21.7667 24.7999 21.2334 24.6832 20.675 24.4416C20.15 24.2166 19.625 23.9166 19.1167 23.5416C18.6167 23.1749 18.125 22.7582 17.675 22.3082C17.225 21.8499 16.8083 21.3666 16.4417 20.8666C16.0667 20.3416 15.7667 19.8249 15.55 19.3166C15.3167 18.7666 15.2 18.2249 15.2 17.7082C15.2 17.3416 15.2667 16.9916 15.3917 16.6666C15.525 16.3249 15.7417 16.0166 16.025 15.7499C16.5583 15.2249 17.325 15.0333 17.9334 15.3249C18.1417 15.4166 18.3167 15.5666 18.45 15.7666L19.4167 17.1249C19.5167 17.2582 19.5917 17.3999 19.65 17.5416C19.7167 17.7082 19.7584 17.8749 19.7584 18.0333C19.7584 18.2499 19.7 18.4666 19.5834 18.6583C19.5084 18.7833 19.4 18.9333 19.2583 19.0749L19.15 19.1916C19.2 19.2582 19.2583 19.3416 19.35 19.4416C19.525 19.6416 19.7167 19.8582 19.925 20.0666C20.1333 20.2666 20.3417 20.4666 20.55 20.6416C20.65 20.7249 20.7334 20.7916 20.8 20.8332L20.9167 20.7166C21.0667 20.5666 21.2167 20.4499 21.3667 20.3749C21.6417 20.1999 22.0667 20.1583 22.4417 20.3166C22.575 20.3666 22.7083 20.4416 22.85 20.5416L24.2417 21.5249C24.4334 21.6582 24.5833 21.8416 24.6833 22.0499C24.7667 22.2582 24.8 22.4416 24.8 22.6332C24.8 22.8832 24.7417 23.1249 24.6334 23.3582C24.525 23.5749 24.4 23.7666 24.25 23.9416C23.9833 24.2333 23.675 24.4499 23.3417 24.5916C23.0084 24.7333 22.65 24.7999 22.2833 24.7999ZM17.325 16.4499C17.275 16.4499 17.1084 16.4499 16.9 16.6582C16.7417 16.8082 16.6333 16.9666 16.5583 17.1416C16.4833 17.3166 16.45 17.5166 16.45 17.7166C16.45 18.0666 16.5333 18.4416 16.7 18.8416C16.875 19.2582 17.1334 19.6999 17.45 20.1416C17.775 20.5833 18.1417 21.0249 18.55 21.4332C18.9584 21.8332 19.3917 22.2082 19.8417 22.5416C20.275 22.8582 20.7167 23.1082 21.1584 23.2999C21.7917 23.5749 22.375 23.6416 22.85 23.4416C23.0167 23.3749 23.1667 23.2583 23.3167 23.1083C23.3917 23.0249 23.45 22.9416 23.5 22.8332C23.525 22.7749 23.5417 22.7082 23.5417 22.6499C23.5417 22.6332 23.5417 22.6083 23.5167 22.5583L22.125 21.5916C22.0667 21.5499 22.0083 21.5166 21.9583 21.4999C21.925 21.5166 21.875 21.5416 21.7834 21.6332L21.4667 21.9499C21.225 22.1916 20.8417 22.2582 20.5334 22.1499L20.3834 22.0832C20.1917 21.9832 19.975 21.8333 19.7333 21.6249C19.5 21.4249 19.275 21.2166 19.0334 20.9832C18.8 20.7416 18.5917 20.5166 18.3917 20.2832C18.175 20.0249 18.025 19.8166 17.925 19.6416L17.8334 19.4249C17.8084 19.3416 17.8 19.2499 17.8 19.1666C17.8 18.9332 17.8834 18.7249 18.0417 18.5582L18.3584 18.2333C18.45 18.1416 18.4834 18.0916 18.5 18.0583C18.475 17.9999 18.4417 17.9499 18.4 17.8916L17.425 16.5166L17.325 16.4499Z" fill="white"/>
</svg>
